<!-- <svg width="200" height="200" viewBox="0 0 200 200" fill="none" xmlns="http://www.w3.org/2000/svg">
<path d="M116.922 150H83.4866C77.4682 150 72.1186 146.833 68.9422 141.667C64.2612 133.667 54.0634 131 46.0389 135.667C38.0143 140.333 35.3395 150.5 40.0205 158.5C49.2152 174 65.4315 183.333 83.4866 183.333C83.4866 192.5 91.0096 200 100.204 200C109.399 200 116.922 192.5 116.922 183.333C130.463 183.333 143.169 178 152.197 168.833C161.726 159.5 167.075 146.833 167.075 133.333C167.075 105.833 144.506 83.3333 116.922 83.3333H83.4866C78.9728 83.3333 74.9606 81.6667 71.617 78.1667C68.4406 75.1667 66.7689 71.1667 66.7689 66.6667C66.7689 57.5 74.2919 50 83.4866 50H116.922C122.941 50 128.29 53.1667 131.467 58.3333C136.148 66.3333 146.345 69 154.37 64.3333C162.394 59.6667 165.069 49.5 160.388 41.5C151.194 26 134.977 16.6667 116.922 16.6667C116.922 7.5 109.399 0 100.204 0C91.0096 0 83.4866 7.5 83.4866 16.6667C55.9023 16.6667 33.3334 39.1667 33.3334 66.6667C33.3334 80.1667 38.6831 92.8333 47.8778 101.833C57.2398 111.333 69.9452 116.667 83.4866 116.667H116.922C126.117 116.667 133.64 124.167 133.64 133.333C133.64 137.833 131.968 141.833 128.457 145.167C125.448 148.333 121.436 150 116.922 150Z" fill="#94D154"/>
</svg> -->


<svg width="939" height="913" viewBox="0 0 939 913" fill="none" xmlns="http://www.w3.org/2000/svg">
<path d="M58.2695 520.095C58.2695 520.095 254.794 888.828 300.32 896.249C345.845 903.67 232.636 545.042 232.636 545.042L58.2695 520.095Z" fill="#E7FF9C"/>
<path d="M279.896 896.355C223.843 772.356 167.792 648.252 111.634 523.938C106.371 512.253 112.634 500.096 125.581 496.622C344.737 437.728 549.051 344.571 730.418 221.888C741.154 214.625 754.206 218.467 759.785 230.572C818.732 359.571 877.573 488.464 936.31 617.2C941.836 629.305 937.521 644.884 926.626 651.831C741.786 769.987 534.63 858.197 313.264 911.828C300.054 914.986 285.159 907.986 279.896 896.355Z" fill="#379756"/>
<path d="M729.364 284.045C780.364 395.886 831.258 507.569 882.099 619.199C711.154 725.777 521.683 807.092 319.843 859.408C271.001 751.356 222.159 643.146 173.212 534.832C373.421 478.78 560.892 393.939 729.364 284.045ZM756.417 225.256C749.943 217.519 739.365 215.835 730.418 221.888C549.051 344.571 344.737 437.728 125.581 496.622C112.634 500.095 106.371 512.253 111.634 523.937C167.792 648.252 223.896 772.409 279.896 896.355C280.79 898.302 281.896 900.091 283.265 901.723C290.054 910.039 302.264 914.46 313.159 911.828C534.577 858.25 741.733 769.987 926.521 651.831C937.468 644.831 941.731 629.252 936.257 617.2C877.521 488.464 818.679 359.623 759.732 230.572C758.838 228.572 757.733 226.782 756.417 225.256Z" fill="#146D5E"/>
<path d="M644.107 276.993C638.528 301.256 641.107 327.413 654.055 349.992C675.265 386.886 719.37 401.518 756.58 382.781C779.316 371.36 795.368 350.413 803.421 326.255C788.842 294.361 774.316 262.466 759.737 230.572C754.211 218.467 741.106 214.625 730.37 221.888C702.159 240.993 673.422 259.361 644.107 276.993Z" fill="#47AA54"/>
<path d="M838.631 704.778C817.894 695.936 800.527 678.146 791.895 653.199C777.738 612.305 793.316 563.99 827.316 538.042C848.105 522.253 871.473 517.201 892.631 521.622C907.157 553.463 921.683 585.305 936.209 617.147C941.735 629.252 937.42 644.831 926.473 651.778C897.789 670.199 868.473 687.883 838.631 704.778Z" fill="#146D5E"/>
<path d="M415.476 884.302C423.318 863.881 421.897 839.829 409.002 817.355C387.845 780.461 340.477 760.251 296.951 768.093C270.372 772.882 250.004 786.461 238.32 804.355C252.162 835.039 266.056 865.723 279.898 896.355C285.161 907.986 300.109 914.986 313.161 911.828C347.635 903.46 381.739 894.302 415.476 884.302Z" fill="#146D5E"/>
<path d="M226.794 466.622C248.899 477.833 266.795 496.464 274.952 520.569C288.268 560.043 269.005 601.937 228.9 617.358C204.427 626.831 177.269 625.305 153.322 616.042C139.427 585.306 125.585 554.569 111.691 523.832C106.428 512.148 112.69 499.99 125.638 496.517C159.69 487.464 193.426 477.464 226.794 466.622Z" fill="#146D5E"/>
<path d="M580.478 688.62C512.899 717.883 437.057 695.83 413.847 644.462C390.584 592.937 428.373 530.885 495.425 500.78C562.582 470.78 633.845 484.99 657.634 537.358C681.371 589.568 648.108 659.515 580.478 688.62Z" fill="#146D5E"/>
<path d="M805.681 333.939C775.576 299.992 745.419 265.992 715.209 231.94C537.632 349.623 338.634 439.412 125.531 496.622C112.583 500.095 106.268 512.253 111.584 523.937C141.268 589.568 170.846 655.094 200.477 720.619C241.319 767.882 282.161 815.092 322.897 862.197C331.739 872.407 347.686 875.249 358.528 868.46C548.684 774.829 724.84 649.304 879.734 496.148C855.102 442.096 830.418 387.991 805.681 333.939Z" fill="#146D5E"/>
<path d="M312.054 783.724C185.476 671.883 89.5289 577.779 4.84561 470.517C-3.52272 459.885 -0.627861 438.622 10.2668 432.043C195.265 321.097 390.052 180.309 538.84 6.57417C547.629 -3.68888 570.945 -1.05729 579.366 8.41629C668.891 109.363 724.628 202.678 813.522 302.887C821.891 312.308 821.89 328.729 813.417 339.413C670.576 520.727 532.051 678.567 350.947 798.303C340.263 805.408 320.843 793.829 312.054 783.724Z" fill="white"/>
<path d="M341 800.935C247.264 692.936 153.318 584.516 59.2134 475.569C50.3713 465.359 52.1081 451.833 63.0553 445.307C248.053 334.36 418.84 189.73 567.628 15.9425C576.418 5.67949 590.313 4.94278 598.681 14.4164C688.207 115.363 777.416 215.94 866.31 316.097C874.678 325.518 874.678 341.939 866.204 352.623C723.364 533.937 557.471 686.831 376.368 806.566C365.684 813.724 349.842 811.092 341 800.935Z" fill="#B9ED3A"/>
<path d="M305.421 273.782C228.054 337.624 147.002 394.991 63.0553 445.359C52.1081 451.938 50.3713 465.412 59.2134 475.622C153.37 584.568 247.264 692.988 341 800.987C349.79 811.145 365.684 813.724 376.368 806.671C457.367 753.146 535.261 692.883 609.471 626.515C513.209 504.569 412.578 386.097 305.421 273.782Z" fill="#E7FF9C"/>
<path d="M582.051 74.5207C660.156 162.678 738.05 250.519 815.681 338.044C682.261 501.516 529.842 640.778 364.423 752.251C283.16 658.883 201.792 565.147 120.214 471.096C288.528 365.886 444.474 232.519 582.051 74.5207ZM590.525 8.88983C582.894 6.15302 573.893 8.62671 567.578 15.9951C418.79 189.73 248.003 334.413 63.0045 445.359C52.0573 451.938 50.3206 465.411 59.1626 475.622C153.32 584.568 247.214 692.988 340.949 800.987C343.423 803.829 346.423 806.092 349.738 807.671C358.212 811.829 368.633 811.724 376.317 806.618C557.421 686.883 723.314 533.99 866.155 352.676C874.576 341.939 874.575 325.518 866.259 316.15C777.365 215.993 688.156 115.415 598.631 14.4687C596.315 11.7845 593.525 9.94245 590.525 8.88983Z" fill="#47AA54"/>
<path d="M496.576 94.9945C497.366 119.468 506.839 143.31 525.418 160.52C555.891 188.73 602.417 188.415 633.68 158.257C652.838 139.889 663.153 114.678 664.995 89.2575C642.89 64.3631 620.786 39.4161 598.628 14.4164C590.208 4.94277 576.365 5.67949 567.575 15.9425C544.47 43.0475 520.734 69.3632 496.576 94.9945Z" fill="#47AA54"/>
<path d="M797.888 435.254C775.994 434.254 754.679 423.307 739.627 402.517C714.943 368.36 716.522 317.15 742.206 280.677C757.89 258.414 778.995 245.308 800.311 241.729C822.31 266.571 844.309 291.361 866.309 316.097C874.624 325.518 874.677 341.939 866.203 352.623C843.993 380.939 821.204 408.465 797.888 435.254Z" fill="#47AA54"/>
<path d="M459.843 748.304C460.159 725.672 451.002 702.409 431.792 684.094C400.266 654.147 349.897 648.041 312.582 668.094C289.792 680.357 275.898 699.567 271.477 720.725C294.687 747.462 317.898 774.198 341.056 800.935C349.845 811.092 365.74 813.671 376.424 806.619C404.581 787.987 432.422 768.567 459.843 748.304Z" fill="#47AA54"/>
<path d="M148.37 391.096C172.843 396.412 195.685 409.938 211.053 431.201C236.158 466.043 231.527 512.148 199.422 537.99C179.843 553.726 154.265 559.411 129.002 556.305C105.739 529.411 82.4763 502.516 59.2134 475.569C50.3713 465.306 52.1081 451.833 63.0553 445.306C91.8445 428.044 120.318 409.991 148.37 391.096Z" fill="#47AA54"/>
<path d="M550.632 506.253C496.054 555.832 418.739 556.989 380.739 513.516C342.634 469.99 358.898 399.517 414.371 351.36C469.897 303.308 542.685 294.676 579.895 336.781C617.053 378.833 605.263 456.78 550.632 506.253Z" fill="#47AA54"/>
</svg>
