<svg width="200" height="200" viewBox="0 0 200 200" fill="none" xmlns="http://www.w3.org/2000/svg">
<path d="M116.922 150H83.4866C77.4682 150 72.1186 146.833 68.9422 141.667C64.2612 133.667 54.0634 131 46.0389 135.667C38.0143 140.333 35.3395 150.5 40.0205 158.5C49.2152 174 65.4315 183.333 83.4866 183.333C83.4866 192.5 91.0096 200 100.204 200C109.399 200 116.922 192.5 116.922 183.333C130.463 183.333 143.169 178 152.197 168.833C161.726 159.5 167.075 146.833 167.075 133.333C167.075 105.833 144.506 83.3333 116.922 83.3333H83.4866C78.9728 83.3333 74.9606 81.6667 71.617 78.1667C68.4406 75.1667 66.7689 71.1667 66.7689 66.6667C66.7689 57.5 74.2919 50 83.4866 50H116.922C122.941 50 128.29 53.1667 131.467 58.3333C136.148 66.3333 146.345 69 154.37 64.3333C162.394 59.6667 165.069 49.5 160.388 41.5C151.194 26 134.977 16.6667 116.922 16.6667C116.922 7.5 109.399 0 100.204 0C91.0096 0 83.4866 7.5 83.4866 16.6667C55.9023 16.6667 33.3334 39.1667 33.3334 66.6667C33.3334 80.1667 38.6831 92.8333 47.8778 101.833C57.2398 111.333 69.9452 116.667 83.4866 116.667H116.922C126.117 116.667 133.64 124.167 133.64 133.333C133.64 137.833 131.968 141.833 128.457 145.167C125.448 148.333 121.436 150 116.922 150Z" fill="#94D154"/>
</svg>
