<!-- <svg width="200" height="200" viewBox="0 0 200 200" fill="none" xmlns="http://www.w3.org/2000/svg">
<path d="M161.081 24.2724L135.307 9.41593C113.546 -3.13864 86.7255 -3.13864 64.9515 9.41593L39.1776 24.2724C17.4035 36.827 4 60.0311 4 85.127V114.853C4 139.962 17.4035 163.153 39.1776 175.708L64.9515 190.577C86.7123 203.132 113.533 203.132 135.307 190.577L161.081 175.708C182.841 163.153 196.258 139.962 196.258 114.853V85.127C196.258 60.0311 182.841 36.827 161.081 24.2724Z" fill="#FFE286"/>
<path d="M16.1851 45.6251C21.8008 52.7822 35.2837 53.2981 47.5482 46.4983C60.647 39.2222 67.3885 26.3369 62.5808 17.7114C61.5609 15.8725 60.0775 14.4041 58.2895 13.2664L39.1776 24.2863C29.8402 29.6574 22.0392 37.0129 16.1851 45.6251Z" fill="white"/>
<path d="M161.08 24.2732L137.108 10.4486L40.9788 176.754L64.9514 190.578C86.7122 203.133 113.532 203.133 135.307 190.578L161.08 175.709C182.841 163.154 196.258 139.963 196.258 114.854V85.1278C196.258 60.0319 182.841 36.8278 161.08 24.2732Z" fill="#FAAD26"/>
<path d="M161.08 24.2731L150.432 18.1348L54.3027 184.44L64.9514 190.578C67.6135 192.113 70.3419 193.449 73.1233 194.6L168.656 29.3267C166.259 27.5011 163.729 25.8077 161.08 24.2731Z" fill="#FCCE60"/>
<path d="M40.5681 65.6544C44.8726 58.2063 51.0976 51.9885 58.5675 47.6758L84.3414 32.8061C99.5064 24.0615 118.34 24.0615 133.505 32.8061L159.279 47.6758C174.444 56.4203 183.861 72.7188 183.861 90.1946V119.921C183.861 128.533 181.583 137.013 177.279 144.474C172.974 151.922 166.749 158.14 159.279 162.453L133.505 177.323C118.34 186.067 99.5064 186.067 84.3414 177.323L58.5675 162.453C43.4025 153.708 33.9856 137.41 33.9856 119.934V90.2079C33.9856 81.5956 36.2637 73.1024 40.5681 65.6544Z" fill="#FFE286"/>
<path d="M31.774 60.5743C36.0784 53.1262 42.3034 46.9084 49.7733 42.5957L75.5472 27.726C90.7123 18.9815 109.546 18.9815 124.711 27.726L150.485 42.5957C165.65 51.3402 175.067 67.6387 175.067 85.1145V114.841C175.067 123.453 172.789 131.933 168.484 139.394C164.18 146.842 157.955 153.06 150.485 157.373L124.711 172.242C109.546 180.987 90.7123 180.987 75.5472 172.242L49.7733 157.373C34.6083 148.641 25.1914 132.343 25.1914 114.867V85.141C25.1914 76.5288 27.4695 68.0356 31.774 60.5743Z" fill="#BE541C"/>
<path d="M170.658 157.081C175.152 153.191 176.422 147.302 173.495 143.929C170.568 140.555 164.552 140.974 160.058 144.864C155.564 148.754 154.294 154.642 157.221 158.016C160.148 161.39 166.164 160.971 170.658 157.081Z" fill="#FFF3D2"/>
<path d="M80.1561 33.9967L54.965 48.5225C48.2765 52.3854 42.6873 57.9549 38.8331 64.6357C34.9657 71.3165 32.926 78.9366 32.926 86.6624V116.693C32.926 130.345 40.2105 142.953 52.0512 149.779L90.6061 172.004C101.069 178.037 114.022 178.341 124.512 172.362C124.578 172.322 124.658 172.282 124.724 172.243L150.498 157.373C157.955 153.073 164.18 146.856 168.497 139.394C172.802 131.946 175.08 123.453 175.08 114.841V85.1278C175.08 85.0485 175.08 84.9691 175.08 84.8897C175.014 72.8246 168.285 61.765 157.822 55.7324L120.088 33.9967C107.745 26.8662 92.5133 26.8662 80.1561 33.9967Z" fill="#EA8914"/>
<path d="M17.1253 73.8036C20.9655 73.8036 24.0787 70.694 24.0787 66.8582C24.0787 63.0224 20.9655 59.9128 17.1253 59.9128C13.285 59.9128 10.1719 63.0224 10.1719 66.8582C10.1719 70.694 13.285 73.8036 17.1253 73.8036Z" fill="white"/>
<path d="M153.212 98.6349V110.541C153.212 111.957 152.842 113.346 152.126 114.563L134.14 145.678C130.922 151.248 124.935 154.7 118.512 154.7H82.8706C76.4602 154.7 70.4736 151.248 67.2552 145.691L50.7657 117.169C50.7657 117.156 50.7525 117.156 50.7525 117.143C50.024 115.873 49.6797 114.417 49.6797 112.949V101.334C49.7194 101.215 49.7724 101.109 49.8254 101.003C49.8254 100.99 49.8254 100.99 49.8254 100.99C49.7327 100.209 49.6797 99.4286 49.6797 98.6481C49.6797 95.5392 50.4744 92.4303 52.0902 89.6522L68.5797 61.1167C71.7981 55.5339 77.7582 52.1075 84.2083 52.1075H117.187C123.637 52.1075 129.597 55.5339 132.816 61.1167L135.928 66.501C136.087 66.7788 136.14 67.0434 136.14 67.2683V76.3832C136.14 77.4416 135.279 78.3015 134.22 78.3015H84.142C82.897 78.3015 81.7315 78.9629 81.109 80.0477L68.275 102.26L82.4335 126.76C83.056 127.832 84.2215 128.507 85.4665 128.507H115.929C117.174 128.507 118.326 127.832 118.962 126.76L124.882 116.508H103.214L103.28 124.009C103.294 124.723 102.459 125.12 101.903 124.657L83.7712 109.549C83.3474 109.192 83.1354 108.689 83.1354 108.186V98.701C83.1354 98.1983 83.3474 97.6956 83.7579 97.3384L101.837 82.1247C102.393 81.6617 103.214 82.0454 103.214 82.7597V90.3137H144.445C145.743 90.3137 147.04 90.5253 148.219 91.0413C151.544 92.5229 153.212 95.5789 153.212 98.6349Z" fill="#BE541C"/>
<path d="M132.817 61.1299C129.598 55.5603 123.638 52.1207 117.201 52.1207H84.2224C77.7723 52.1207 71.8122 55.5603 68.5938 61.1299L52.0911 89.6654C48.8726 95.2217 48.8726 102.127 52.0911 107.684L68.5805 136.219C71.7857 141.775 77.7723 145.228 84.1959 145.228H117.188C123.612 145.228 129.598 141.775 132.817 136.219L152.101 102.868C152.127 102.802 152.154 102.749 152.193 102.696C154.352 98.7407 153.081 93.3828 148.419 91.1603C147.187 90.5782 145.81 90.3401 144.459 90.3401H103.228V82.7862C103.228 82.0718 102.394 81.6881 101.851 82.1512L83.7721 97.3648C82.9244 98.0792 82.9244 99.3757 83.7721 100.09L101.904 115.211C102.447 115.674 103.281 115.277 103.281 114.563L103.215 107.049H130.366L118.963 126.76C118.34 127.845 117.188 128.507 115.93 128.507H85.4674C84.2224 128.507 83.0569 127.845 82.4344 126.76L67.2031 100.421C66.5806 99.336 66.5806 98.013 67.2031 96.9282L82.4344 70.5888C83.0569 69.504 84.2091 68.8425 85.4674 68.8425H134.591C135.399 68.8425 135.797 68.3001 135.929 68.0752C136.062 67.8503 136.326 67.2285 135.929 66.5274L132.817 61.1299Z" fill="#FFF4B3"/>
<path d="M148.419 91.1338C147.187 90.5517 145.81 90.3136 144.445 90.3136H103.493L93.2817 107.988L101.904 115.171C102.447 115.634 103.281 115.238 103.281 114.523L103.215 107.009H130.366L118.963 126.76C118.34 127.845 117.188 128.506 115.93 128.506H85.4674C84.2224 128.506 83.0569 127.845 82.4344 126.76L73.7195 141.842C76.7392 143.998 80.3947 145.215 84.2092 145.215H117.201C123.625 145.215 129.612 141.762 132.83 136.206L152.114 102.855C152.141 102.789 152.167 102.736 152.207 102.683C154.352 98.7274 153.081 93.3563 148.419 91.1338Z" fill="#FFE286"/>
<path d="M134.591 68.8425C135.399 68.8425 135.797 68.3001 135.929 68.0752C136.062 67.8503 136.326 67.2285 135.929 66.5274L132.817 61.1431C130.909 57.8358 128.022 55.2825 124.645 53.7479L115.917 68.8425H134.591Z" fill="#FFE286"/>
<path d="M59.9053 84.7441C63.4548 87.6545 69.097 87.1386 74.6994 83.9636L82.4343 70.5888C83.0567 69.504 84.209 68.8425 85.4673 68.8425H88.434C91.4935 62.2543 91.6525 55.772 88.5003 52.1207H84.209C77.7589 52.1207 71.7989 55.5603 68.5804 61.1299L57.2563 80.7224C57.7994 82.3364 58.6603 83.7122 59.9053 84.7441Z" fill="white"/>
<path d="M59.071 98.6745C61.3825 98.6745 63.2563 96.8028 63.2563 94.4941C63.2563 92.1853 61.3825 90.3136 59.071 90.3136C56.7596 90.3136 54.8857 92.1853 54.8857 94.4941C54.8857 96.8028 56.7596 98.6745 59.071 98.6745Z" fill="white"/>
</svg> -->

<svg width="337" height="185" viewBox="0 0 337 185" fill="none" xmlns="http://www.w3.org/2000/svg">
<g clip-path="url(#clip0_2243_776)">
<path d="M323.486 184.186H18.8127C11.9052 184.186 6.29932 178.589 6.29932 171.672V12.5134C6.29932 5.59636 11.9052 0 18.8127 0H323.496C330.403 0 336.009 5.59636 336.009 12.5134V171.672C336 178.58 330.403 184.186 323.486 184.186Z" fill="#C6C4E6"/>
<path d="M215.018 6.93606C217.384 2.65091 221.897 0 226.79 0H260.881H18.8127C11.9052 0 6.29932 5.59636 6.29932 12.5134V171.672C6.29932 178.58 11.8957 184.186 18.8127 184.186H109.02C113.913 184.186 118.417 181.525 120.792 177.25L215.018 6.93606Z" fill="#E9E9FF"/>
<path d="M239.247 6.93606L145.021 177.24C142.655 181.525 138.142 184.176 133.248 184.176H112.165H158.171C163.064 184.176 167.568 181.516 169.943 177.24L264.169 6.93606C266.535 2.65091 271.048 0 275.941 0H294.602H251.028C246.126 0 241.612 2.66041 239.247 6.93606Z" fill="#DEDEFF"/>
<path d="M29.103 28.5043V155.681C29.103 158.826 31.6589 161.382 34.8039 161.382H307.496C310.641 161.382 313.197 158.826 313.197 155.681V28.5043C313.197 25.3594 310.641 22.8035 307.496 22.8035H34.8039C31.6589 22.8035 29.103 25.3594 29.103 28.5043Z" fill="#3B3B5D"/>
<path d="M29.103 45.4359V28.5043C29.103 25.3594 31.6589 22.8035 34.8039 22.8035H307.496C310.641 22.8035 313.197 25.3594 313.197 28.5043V45.4359H29.103Z" fill="#2D2D4A"/>
<path d="M313.2 116.253V95.0459L29.1067 95.0459V116.253L313.2 116.253Z" fill="#2D2D4A"/>
<path d="M143.386 22.8035H102.045H113.343C116.488 22.8035 119.044 25.3594 119.044 28.5043V82.8242C119.044 85.9691 116.488 88.525 113.343 88.525H102.045H143.386H132.089C128.944 88.525 126.388 85.9691 126.388 82.8242V28.5043C126.388 25.3594 128.944 22.8035 132.089 22.8035H143.386Z" fill="#A7A6D2"/>
<path d="M240.662 22.8035H199.321H210.619C213.764 22.8035 216.319 25.3594 216.319 28.5043V82.8242C216.319 85.9691 213.764 88.525 210.619 88.525H199.321H240.662H229.365C226.22 88.525 223.664 85.9691 223.664 82.8242V28.5043C223.664 25.3594 226.22 22.8035 229.365 22.8035H240.662Z" fill="#A7A6D2"/>
<path d="M29.103 71.527V112.868V101.571C29.103 98.4256 31.6589 95.8697 34.8039 95.8697H307.496C310.641 95.8697 313.197 98.4256 313.197 101.571V112.868V71.527V82.8242C313.197 85.9692 310.641 88.5251 307.496 88.5251H34.8039C31.6589 88.5251 29.103 85.9692 29.103 82.8242V71.527Z" fill="#A7A6D2"/>
<path d="M240.662 95.8697H199.321H210.619C213.764 95.8697 216.319 98.4256 216.319 101.571V155.681C216.319 158.826 213.764 161.382 210.619 161.382H199.321H240.662H229.365C226.22 161.382 223.664 158.826 223.664 155.681V101.571C223.664 98.4256 226.22 95.8697 229.365 95.8697H240.662Z" fill="#A7A6D2"/>
<path d="M143.386 95.8697H102.045H113.343C116.488 95.8697 119.044 98.4256 119.044 101.571V155.681C119.044 158.826 116.488 161.382 113.343 161.382H102.045H143.386H132.089C128.944 161.382 126.388 158.826 126.388 155.681V101.571C126.388 98.4256 128.944 95.8697 132.089 95.8697H143.386Z" fill="#A7A6D2"/>
<path d="M27.5637 110.34H1.53924C0.693606 110.34 0 111.519 0 112.972V119.614V125.59V126.806V133.448V139.424C0 140.878 0.684105 142.056 1.53924 142.056H27.8013C28.5234 142.056 29.103 141.059 29.103 139.823V133.847V126.816V125.201V119.224V112.982C29.103 111.519 28.4189 110.34 27.5637 110.34Z" fill="#E9E9FF"/>
<path d="M27.5637 42.5285H1.53924C0.684105 42.5285 0 43.7067 0 45.1509V51.7924V57.7688V58.985V65.6265V71.603C0 73.0567 0.684105 74.2349 1.53924 74.2349H27.8013C28.5234 74.2349 29.103 73.2372 29.103 72.002V66.0256V58.9945V57.3793V51.4029V45.1604C29.103 43.7067 28.4189 42.5285 27.5637 42.5285Z" fill="#E9E9FF"/>
</g>
<path d="M52.7903 35.9248L44.2025 44.6977C42.6432 46.2907 42.5927 48.8261 44.096 50.4752L69.9545 78.9588C71.3175 80.4621 73.679 80.4621 75.0477 78.9588L100.906 50.4752C102.404 48.8261 102.359 46.2907 100.8 44.6977L92.2063 35.9248C90.8432 34.5282 88.9698 33.7429 87.0234 33.7429H57.9732C56.0212 33.7429 54.1533 34.5282 52.7903 35.9248Z" fill="#E8513D"/>
<path d="M72.4954 33.7429L56.8008 51.0305H88.1956L72.4954 33.7429Z" fill="#FFBF9C"/>
<path d="M56.8008 51.0305L71.2389 79.301C71.7606 80.3274 73.2246 80.3274 73.7519 79.301L88.19 51.0305H56.8008Z" fill="#C12938"/>
<path d="M68.9391 51.0305H56.8008L62.7241 62.6247C63.4645 64.0719 65.5287 64.0719 66.2692 62.6247L70.7117 53.9248C71.3848 52.6066 70.4256 51.0305 68.9391 51.0305Z" fill="#961836"/>
<path d="M100.794 44.6977L92.2064 35.9249C91.5669 35.2742 90.8153 34.7582 90.002 34.3936L88.1958 51.0361L100.228 48.3044C101.394 48.0408 102.067 46.7339 101.506 45.6793C101.316 45.3259 101.08 44.995 100.794 44.6977Z" fill="#C12938"/>
<path d="M88.1958 51.0305L95.1961 49.4375C95.9982 49.258 96.2843 48.2708 95.7122 47.6818L90.8209 42.684C90.2039 42.0501 89.1269 42.426 89.0316 43.3066L88.1958 51.0305Z" fill="#961836"/>
<path d="M54.9949 34.3936C54.1815 34.7638 53.4299 35.2742 52.7904 35.9249L44.2027 44.7033C43.9559 44.9557 43.7484 45.2306 43.5801 45.5223C42.9406 46.6161 43.5408 48.024 44.7805 48.3044L56.801 51.0361L54.9949 34.3936Z" fill="#FF8643"/>
<path d="M56.8009 51.0305L49.8006 49.4375C48.9985 49.258 48.7124 48.2708 49.2846 47.6818L54.1758 42.684C54.7928 42.0501 55.8698 42.426 55.9652 43.3066L56.8009 51.0305Z" fill="#FFBF9C"/>
<path d="M249.79 35.9248L241.203 44.6977C239.643 46.2907 239.593 48.8261 241.096 50.4752L266.954 78.9588C268.318 80.4621 270.679 80.4621 272.048 78.9588L297.906 50.4752C299.404 48.8261 299.359 46.2907 297.8 44.6977L289.206 35.9248C287.843 34.5282 285.97 33.7429 284.023 33.7429H254.973C253.021 33.7429 251.153 34.5282 249.79 35.9248Z" fill="#E8513D"/>
<path d="M269.495 33.7429L253.801 51.0305H285.196L269.495 33.7429Z" fill="#FFBF9C"/>
<path d="M253.801 51.0305L268.239 79.301C268.761 80.3274 270.225 80.3274 270.752 79.301L285.19 51.0305H253.801Z" fill="#C12938"/>
<path d="M265.939 51.0305H253.801L259.724 62.6247C260.465 64.0719 262.529 64.0719 263.269 62.6247L267.712 53.9248C268.385 52.6066 267.426 51.0305 265.939 51.0305Z" fill="#961836"/>
<path d="M297.794 44.6977L289.206 35.9249C288.567 35.2742 287.815 34.7582 287.002 34.3936L285.196 51.0361L297.228 48.3044C298.394 48.0408 299.067 46.7339 298.506 45.6793C298.316 45.3259 298.08 44.995 297.794 44.6977Z" fill="#C12938"/>
<path d="M285.196 51.0305L292.196 49.4375C292.998 49.258 293.284 48.2708 292.712 47.6818L287.821 42.684C287.204 42.0501 286.127 42.426 286.032 43.3066L285.196 51.0305Z" fill="#961836"/>
<path d="M251.995 34.3936C251.182 34.7638 250.43 35.2742 249.79 35.9249L241.203 44.7033C240.956 44.9557 240.748 45.2306 240.58 45.5223C239.941 46.6161 240.541 48.024 241.78 48.3044L253.801 51.0361L251.995 34.3936Z" fill="#FF8643"/>
<path d="M253.801 51.0305L246.801 49.4375C245.999 49.258 245.712 48.2708 246.285 47.6818L251.176 42.684C251.793 42.0501 252.87 42.426 252.965 43.3066L253.801 51.0305Z" fill="#FFBF9C"/>
<path d="M249.79 108.925L241.203 117.698C239.643 119.291 239.593 121.826 241.096 123.475L266.954 151.959C268.318 153.462 270.679 153.462 272.048 151.959L297.906 123.475C299.404 121.826 299.359 119.291 297.8 117.698L289.206 108.925C287.843 107.528 285.97 106.743 284.023 106.743H254.973C253.021 106.743 251.153 107.528 249.79 108.925Z" fill="#E8513D"/>
<path d="M269.495 106.743L253.801 124.03H285.196L269.495 106.743Z" fill="#FFBF9C"/>
<path d="M253.801 124.03L268.239 152.301C268.761 153.327 270.225 153.327 270.752 152.301L285.19 124.03H253.801Z" fill="#C12938"/>
<path d="M265.939 124.03H253.801L259.724 135.625C260.465 137.072 262.529 137.072 263.269 135.625L267.712 126.925C268.385 125.607 267.426 124.03 265.939 124.03Z" fill="#961836"/>
<path d="M297.794 117.698L289.206 108.925C288.567 108.274 287.815 107.758 287.002 107.394L285.196 124.036L297.228 121.304C298.394 121.041 299.067 119.734 298.506 118.679C298.316 118.326 298.08 117.995 297.794 117.698Z" fill="#C12938"/>
<path d="M285.196 124.031L292.196 122.437C292.998 122.258 293.284 121.271 292.712 120.682L287.821 115.684C287.204 115.05 286.127 115.426 286.032 116.307L285.196 124.031Z" fill="#961836"/>
<path d="M251.995 107.394C251.182 107.764 250.43 108.274 249.79 108.925L241.203 117.703C240.956 117.956 240.748 118.231 240.58 118.522C239.941 119.616 240.541 121.024 241.78 121.304L253.801 124.036L251.995 107.394Z" fill="#FF8643"/>
<path d="M253.801 124.031L246.801 122.437C245.999 122.258 245.712 121.271 246.285 120.682L251.176 115.684C251.793 115.05 252.87 115.426 252.965 116.307L253.801 124.031Z" fill="#FFBF9C"/>
<path d="M151.79 108.925L143.203 117.698C141.643 119.291 141.593 121.826 143.096 123.475L168.954 151.959C170.318 153.462 172.679 153.462 174.048 151.959L199.906 123.475C201.404 121.826 201.359 119.291 199.8 117.698L191.206 108.925C189.843 107.528 187.97 106.743 186.023 106.743H156.973C155.021 106.743 153.153 107.528 151.79 108.925Z" fill="#E8513D"/>
<path d="M171.495 106.743L155.801 124.03H187.196L171.495 106.743Z" fill="#FFBF9C"/>
<path d="M155.801 124.03L170.239 152.301C170.761 153.327 172.225 153.327 172.752 152.301L187.19 124.03H155.801Z" fill="#C12938"/>
<path d="M167.939 124.03H155.801L161.724 135.625C162.465 137.072 164.529 137.072 165.269 135.625L169.712 126.925C170.385 125.607 169.426 124.03 167.939 124.03Z" fill="#961836"/>
<path d="M199.794 117.698L191.206 108.925C190.567 108.274 189.815 107.758 189.002 107.394L187.196 124.036L199.228 121.304C200.394 121.041 201.067 119.734 200.506 118.679C200.316 118.326 200.08 117.995 199.794 117.698Z" fill="#C12938"/>
<path d="M187.196 124.031L194.196 122.437C194.998 122.258 195.284 121.271 194.712 120.682L189.821 115.684C189.204 115.05 188.127 115.426 188.032 116.307L187.196 124.031Z" fill="#961836"/>
<path d="M153.995 107.394C153.182 107.764 152.43 108.274 151.79 108.925L143.203 117.703C142.956 117.956 142.748 118.231 142.58 118.522C141.941 119.616 142.541 121.024 143.78 121.304L155.801 124.036L153.995 107.394Z" fill="#FF8643"/>
<path d="M155.801 124.031L148.801 122.437C147.999 122.258 147.712 121.271 148.285 120.682L153.176 115.684C153.793 115.05 154.87 115.426 154.965 116.307L155.801 124.031Z" fill="#FFBF9C"/>
<path d="M51.7903 108.925L43.2025 117.698C41.6432 119.291 41.5927 121.826 43.096 123.475L68.9545 151.959C70.3175 153.462 72.679 153.462 74.0477 151.959L99.9062 123.475C101.404 121.826 101.359 119.291 99.7996 117.698L91.2063 108.925C89.8432 107.528 87.9698 106.743 86.0234 106.743H56.9732C55.0212 106.743 53.1533 107.528 51.7903 108.925Z" fill="#E8513D"/>
<path d="M71.4954 106.743L55.8008 124.03H87.1956L71.4954 106.743Z" fill="#FFBF9C"/>
<path d="M55.8008 124.03L70.2389 152.301C70.7606 153.327 72.2246 153.327 72.7519 152.301L87.19 124.03H55.8008Z" fill="#C12938"/>
<path d="M67.9391 124.03H55.8008L61.7241 135.625C62.4645 137.072 64.5287 137.072 65.2692 135.625L69.7117 126.925C70.3848 125.607 69.4256 124.03 67.9391 124.03Z" fill="#961836"/>
<path d="M99.7941 117.698L91.2064 108.925C90.5669 108.274 89.8153 107.758 89.002 107.394L87.1958 124.036L99.2276 121.304C100.394 121.041 101.067 119.734 100.506 118.679C100.316 118.326 100.08 117.995 99.7941 117.698Z" fill="#C12938"/>
<path d="M87.1958 124.031L94.1961 122.437C94.9982 122.258 95.2843 121.271 94.7122 120.682L89.8209 115.684C89.2039 115.05 88.1269 115.426 88.0316 116.307L87.1958 124.031Z" fill="#961836"/>
<path d="M53.9949 107.394C53.1815 107.764 52.4299 108.274 51.7904 108.925L43.2027 117.703C42.9559 117.956 42.7484 118.231 42.5801 118.522C41.9406 119.616 42.5408 121.024 43.7805 121.304L55.801 124.036L53.9949 107.394Z" fill="#FF8643"/>
<path d="M55.8009 124.031L48.8006 122.437C47.9985 122.258 47.7124 121.271 48.2846 120.682L53.1758 115.684C53.7928 115.05 54.8698 115.426 54.9652 116.307L55.8009 124.031Z" fill="#FFBF9C"/>
<path d="M152.79 35.9248L144.203 44.6977C142.643 46.2907 142.593 48.8261 144.096 50.4752L169.954 78.9588C171.318 80.4621 173.679 80.4621 175.048 78.9588L200.906 50.4752C202.404 48.8261 202.359 46.2907 200.8 44.6977L192.206 35.9248C190.843 34.5282 188.97 33.7429 187.023 33.7429H157.973C156.021 33.7429 154.153 34.5282 152.79 35.9248Z" fill="#E8513D"/>
<path d="M172.495 33.7429L156.801 51.0305H188.196L172.495 33.7429Z" fill="#FFBF9C"/>
<path d="M156.801 51.0305L171.239 79.301C171.761 80.3274 173.225 80.3274 173.752 79.301L188.19 51.0305H156.801Z" fill="#C12938"/>
<path d="M168.939 51.0305H156.801L162.724 62.6247C163.465 64.0719 165.529 64.0719 166.269 62.6247L170.712 53.9248C171.385 52.6066 170.426 51.0305 168.939 51.0305Z" fill="#961836"/>
<path d="M200.794 44.6977L192.206 35.9249C191.567 35.2742 190.815 34.7582 190.002 34.3936L188.196 51.0361L200.228 48.3044C201.394 48.0408 202.067 46.7339 201.506 45.6793C201.316 45.3259 201.08 44.995 200.794 44.6977Z" fill="#C12938"/>
<path d="M188.196 51.0305L195.196 49.4375C195.998 49.258 196.284 48.2708 195.712 47.6818L190.821 42.684C190.204 42.0501 189.127 42.426 189.032 43.3066L188.196 51.0305Z" fill="#961836"/>
<path d="M154.995 34.3936C154.182 34.7638 153.43 35.2742 152.79 35.9249L144.203 44.7033C143.956 44.9557 143.748 45.2306 143.58 45.5223C142.941 46.6161 143.541 48.024 144.78 48.3044L156.801 51.0361L154.995 34.3936Z" fill="#FF8643"/>
<path d="M156.801 51.0305L149.801 49.4375C148.999 49.258 148.712 48.2708 149.285 47.6818L154.176 42.684C154.793 42.0501 155.87 42.426 155.965 43.3066L156.801 51.0305Z" fill="#FFBF9C"/>
<g opacity="0.6">
<path d="M323.486 184.186H18.8127C11.9052 184.186 6.29932 178.589 6.29932 171.672V12.5134C6.29932 5.59636 11.9052 0 18.8127 0H323.496C330.404 0 336.009 5.59636 336.009 12.5134V171.672C336 178.58 330.403 184.186 323.486 184.186Z" fill="#C6C4E6"/>
<path d="M215.018 6.93606C217.384 2.65091 221.897 0 226.79 0H260.881H18.8127C11.9052 0 6.29932 5.59636 6.29932 12.5134V171.672C6.29932 178.58 11.8957 184.186 18.8127 184.186H109.02C113.913 184.186 118.416 181.525 120.792 177.25L215.018 6.93606Z" fill="#E9E9FF"/>
<path d="M239.247 6.93606L145.021 177.24C142.655 181.525 138.142 184.176 133.248 184.176H112.165H158.171C163.064 184.176 167.568 181.516 169.943 177.24L264.169 6.93606C266.535 2.65091 271.048 0 275.941 0H294.602H251.028C246.126 0 241.612 2.66041 239.247 6.93606Z" fill="#DEDEFF"/>
<path d="M27.8677 26.5471V157.629C27.8677 160.375 30.1005 162.608 32.8464 162.608H309.215C311.961 162.608 314.194 160.375 314.194 157.629V26.5471C314.194 23.8011 311.961 21.5683 309.215 21.5683H32.8464C30.1005 21.5683 27.8677 23.8011 27.8677 26.5471Z" fill="#7978A1"/>
<path d="M305.899 29.863L36.1721 154.313L29.3311 161.154C30.2337 162.057 31.4784 162.608 32.8466 162.608H309.215C311.961 162.608 314.194 160.375 314.194 157.629V26.547C314.194 25.1693 313.634 23.9246 312.74 23.0315L305.899 29.863Z" fill="white"/>
<path d="M305.899 29.8631H36.1719V154.313H305.899V29.8631Z" fill="#A7A6D2"/>
<path d="M202.333 29.8631H36.1719V154.313H133.476L202.333 29.8631Z" fill="#BEBBDE"/>
<path d="M48.543 136.27H31.1934L36.1721 154.313L48.9421 141.543C49.4552 141.03 49.6547 140.279 49.4552 139.586L48.543 136.27Z" fill="#7978A1"/>
<path d="M47.1557 129.429H2.6319C1.17818 129.429 0 128.251 0 126.797V112.972C0 111.519 1.17818 110.34 2.6319 110.34H47.1557C48.6095 110.34 49.7876 111.519 49.7876 112.972V126.797C49.7781 128.251 48.5999 129.429 47.1557 129.429Z" fill="white"/>
<path d="M47.5453 142.037H2.6319C1.17818 142.037 0 140.859 0 139.405V125.581C0 124.127 1.17818 122.949 2.6319 122.949H47.5548C48.79 122.949 49.7876 123.946 49.7876 125.182V139.804C49.7781 141.04 48.7805 142.037 47.5453 142.037Z" fill="#7978A1"/>
<path d="M47.5453 136.061H2.6319C1.17818 136.061 0 134.883 0 133.429V119.604C0 118.151 1.17818 116.972 2.6319 116.972H47.5548C48.79 116.972 49.7876 117.97 49.7876 119.205V133.828C49.7781 135.063 48.7805 136.061 47.5453 136.061Z" fill="#BEBBDE"/>
<path d="M47.5452 116.982H39.8585C35.1743 116.982 30.9081 119.661 28.8748 123.88L22.9839 136.07H47.5452C48.7803 136.07 49.778 135.073 49.778 133.838V119.215C49.778 117.98 48.7803 116.982 47.5452 116.982Z" fill="#A7A6D2"/>
<path d="M48.543 68.4579H31.1934L36.1721 86.5012L48.9421 73.7313C49.4552 73.2182 49.6547 72.4676 49.4552 71.774L48.543 68.4579Z" fill="#7978A1"/>
<path d="M47.1557 61.6074H2.6319C1.17818 61.6074 0 60.4292 0 58.985V45.1509C0 43.6972 1.17818 42.519 2.6319 42.519H47.1557C48.6095 42.519 49.7876 43.6972 49.7876 45.1509V58.9755C49.7781 60.4292 48.5999 61.6074 47.1557 61.6074Z" fill="white"/>
<path d="M47.5453 74.2158H2.6319C1.17818 74.2158 0 73.0472 0 71.5934V57.7688C0 56.3151 1.17818 55.1369 2.6319 55.1369H47.5548C48.79 55.1369 49.7876 56.1346 49.7876 57.3697V71.9925C49.7781 73.2182 48.7805 74.2158 47.5453 74.2158Z" fill="#7978A1"/>
<path d="M47.5453 68.249H2.6319C1.17818 68.249 0 67.0708 0 65.617V51.7924C0 50.3387 1.17818 49.1605 2.6319 49.1605H47.5548C48.79 49.1605 49.7876 50.1582 49.7876 51.3934V66.0161C49.7781 67.2513 48.7805 68.249 47.5453 68.249Z" fill="#BEBBDE"/>
<path d="M47.5452 49.1605H39.8585C35.1743 49.1605 30.9081 51.8399 28.8748 56.0586L22.9839 68.249H47.5452C48.7803 68.249 49.778 67.2513 49.778 66.0161V51.3934C49.778 50.1677 48.7803 49.1605 47.5452 49.1605Z" fill="#A7A6D2"/>
<path d="M170.656 123.348C190.208 123.348 206.058 107.498 206.058 87.9455C206.058 68.3932 190.208 52.543 170.656 52.543C151.104 52.543 135.253 68.3932 135.253 87.9455C135.253 107.498 151.104 123.348 170.656 123.348Z" fill="#8886AF"/>
<path d="M204.034 98.473C203.844 101.361 203.274 104.231 202.334 106.996C202.296 107.091 202.267 107.195 202.229 107.29C202.115 107.613 201.992 107.946 201.859 108.269C201.773 108.488 201.697 108.697 201.602 108.915C201.516 109.124 201.421 109.324 201.336 109.533C201.193 109.856 201.051 110.188 200.899 110.502C200.861 110.587 200.813 110.673 200.775 110.758C197.535 117.362 192.167 122.74 185.554 125.98C185.459 126.027 185.374 126.075 185.279 126.113C184.965 126.265 184.642 126.407 184.319 126.55C184.11 126.645 183.901 126.74 183.692 126.825C183.483 126.911 183.274 126.987 183.065 127.072C182.732 127.205 182.4 127.329 182.067 127.443C181.972 127.471 181.886 127.509 181.791 127.538C180.205 128.08 178.589 128.498 176.946 128.792V111.975C173.126 112.545 169.174 112.545 165.097 111.842V128.792C163.463 128.498 161.838 128.08 160.252 127.538C160.157 127.509 160.071 127.481 159.976 127.443C159.644 127.329 159.311 127.196 158.978 127.072C158.769 126.987 158.56 126.911 158.351 126.825C158.142 126.74 157.933 126.645 157.724 126.55C157.401 126.407 157.078 126.265 156.765 126.113C156.67 126.065 156.584 126.027 156.489 125.98C146.731 121.191 139.662 111.737 138.199 100.544C138.075 100.497 137.952 100.44 137.819 100.392C131.918 98.4255 130.674 92.3066 127.956 86.5487C127.253 89.6747 126.873 92.9147 126.873 96.2402C126.873 108.412 131.823 119.443 139.814 127.433L139.795 127.452C143.349 131.006 147.358 133.809 151.634 135.89C151.757 135.947 151.881 136.013 152.004 136.07C152.422 136.27 152.85 136.46 153.278 136.65C153.553 136.773 153.838 136.897 154.114 137.011C154.389 137.125 154.674 137.229 154.95 137.344C155.387 137.515 155.833 137.686 156.271 137.847C156.394 137.895 156.518 137.933 156.641 137.971C161.145 139.519 165.972 140.384 170.998 140.384C176.015 140.384 180.841 139.529 185.345 137.98C185.478 137.933 185.602 137.895 185.735 137.847C186.172 137.695 186.609 137.524 187.046 137.353C187.331 137.239 187.616 137.134 187.891 137.02C188.167 136.906 188.442 136.783 188.718 136.659C189.146 136.469 189.583 136.279 190.01 136.08C190.124 136.023 190.248 135.966 190.362 135.909C194.647 133.818 198.657 131.016 202.21 127.462C205.764 123.908 208.567 119.899 210.657 115.614C210.714 115.49 210.78 115.376 210.837 115.253C211.037 114.825 211.227 114.397 211.417 113.97C211.541 113.694 211.664 113.419 211.778 113.134C211.892 112.858 211.997 112.573 212.111 112.288C212.282 111.851 212.453 111.414 212.605 110.967C212.652 110.844 212.69 110.711 212.728 110.587C214.277 106.084 215.132 101.257 215.132 96.2402C215.132 93.6463 214.904 91.1094 214.467 88.639C211.189 92.0786 207.702 95.4231 204.034 98.473Z" fill="#7978A1"/>
<path d="M137.847 101.219C137.971 101.267 138.094 101.324 138.227 101.371C138.047 99.9648 137.933 98.5301 137.933 97.0669C137.933 93.1523 138.617 89.3992 139.871 85.9121L160.128 97.6084C160.309 101.238 162.247 104.402 165.116 106.255V112.668C169.192 113.362 173.145 113.371 176.965 112.801V106.255C179.834 104.402 181.772 101.238 181.953 97.6084L202.201 85.9121C202.21 85.9502 202.229 85.9787 202.239 86.0167C202.277 86.1117 202.305 86.2162 202.343 86.3112C203.778 90.5014 204.338 94.9195 204.044 99.2997C207.711 96.2592 211.198 92.9052 214.514 89.4657C214.106 87.1473 213.526 84.8955 212.776 82.7197C212.728 82.5961 212.69 82.4631 212.652 82.3396C212.491 81.893 212.329 81.456 212.158 81.0189C212.054 80.7339 211.939 80.4583 211.825 80.1733C211.711 79.8977 211.588 79.6127 211.464 79.3371C211.274 78.9096 211.084 78.482 210.885 78.0544C210.828 77.9309 210.761 77.8169 210.704 77.6934C208.623 73.4082 205.811 69.3986 202.258 65.8451L202.239 65.8641C194.248 57.8734 183.217 52.9231 171.045 52.9231C150.038 52.9231 132.422 67.6789 127.994 87.3659C130.702 93.1333 131.947 99.2522 137.847 101.219ZM171.036 63.9638C181.136 63.9638 190.181 68.515 196.262 75.6601L177.079 86.7388L176.034 87.3374C174.532 86.5677 172.841 86.1212 171.036 86.1212C169.23 86.1212 167.539 86.5677 166.038 87.3374L156.584 81.874L145.809 75.6506C151.89 68.515 160.936 63.9638 171.036 63.9638Z" fill="#5E5E85"/>
<path d="M218.239 71.8595C217.716 70.4152 217.051 68.9995 216.262 67.6313C215.597 66.4816 214.866 65.3985 214.068 64.3913C213.469 63.6312 212.405 63.4412 211.569 63.9162L204.804 67.8213C205.697 71.1943 207.312 74.6529 208.291 77.8644C208.433 78.3204 208.566 78.786 208.699 79.2421L217.384 74.2253C218.21 73.7502 218.562 72.7526 218.239 71.8595Z" fill="#7978A1"/>
<path d="M136.241 75.4795C137.106 73.1137 138.075 70.9283 139.386 68.9901L130.711 63.9828C129.885 63.5077 128.839 63.6977 128.231 64.4294C127.243 65.6075 126.35 66.8807 125.561 68.2584C124.896 69.4081 124.326 70.5863 123.851 71.7835C123.5 72.6766 123.861 73.7028 124.697 74.1873L135.015 80.1448C135.272 78.482 135.728 76.8858 136.241 75.4795Z" fill="#8886AF"/>
<path d="M165.164 143.881V123.167C165.164 122.094 166.038 121.22 167.111 121.22H175.055C176.128 121.22 177.002 122.094 177.002 123.167V143.995C177.002 144.954 176.299 145.781 175.34 145.923C174.066 146.113 172.765 146.208 171.435 146.208C169.848 146.208 168.29 146.075 166.779 145.809C165.848 145.638 165.164 144.831 165.164 143.881Z" fill="#7978A1"/>
<path d="M165.164 137.99V117.276C165.164 116.203 166.038 115.329 167.111 115.329H175.055C176.128 115.329 177.002 116.203 177.002 117.276V138.104C177.002 139.063 176.299 139.89 175.34 140.032C174.066 140.222 172.765 140.317 171.435 140.317C169.848 140.317 168.29 140.184 166.779 139.918C165.848 139.747 165.164 138.94 165.164 137.99Z" fill="#DEDEFF"/>
<path d="M217.383 68.0494L199.445 78.406C198.514 78.9476 197.326 78.6245 196.784 77.6934L192.813 70.8143C192.271 69.8832 192.594 68.6955 193.525 68.1539L211.559 57.7403C212.395 57.2557 213.459 57.4553 214.058 58.2154C214.856 59.2225 215.597 60.3057 216.253 61.4554C217.041 62.8331 217.707 64.2393 218.229 65.6835C218.562 66.5672 218.21 67.5743 217.383 68.0494Z" fill="white"/>
<path d="M130.702 57.7973L148.641 68.1539C149.572 68.6955 149.895 69.8831 149.353 70.8143L145.382 77.6933C144.84 78.6245 143.652 78.9475 142.721 78.4059L124.688 67.9923C123.851 67.5078 123.49 66.4911 123.842 65.5885C124.317 64.3913 124.887 63.2131 125.552 62.0634C126.341 60.6857 127.243 59.4125 128.222 58.2344C128.84 57.5122 129.875 57.3222 130.702 57.7973Z" fill="white"/>
<path d="M165.164 122.787V89.7507H177.012V122.778C175.083 123.12 173.116 123.31 171.092 123.31C169.059 123.319 167.083 123.129 165.164 122.787Z" fill="#BCBCE2"/>
<path d="M204.224 75.6506L175.615 92.1641L169.696 81.9025L198.305 65.389C199.568 66.8807 200.718 68.496 201.725 70.2537C202.732 72.002 203.559 73.8073 204.224 75.6506Z" fill="#BCBCE2"/>
<path d="M143.871 65.389L172.48 81.9025L166.551 92.1641L137.942 75.6506C138.607 73.8073 139.434 72.0115 140.441 70.2537C141.457 68.5055 142.607 66.8807 143.871 65.389Z" fill="#BCBCE2"/>
<path d="M165.164 113.998V89.7507H177.002V114.15C175.207 114.54 173.344 114.73 171.435 114.73C169.278 114.74 167.178 114.483 165.164 113.998Z" fill="#DEDEFF"/>
<path d="M169.687 81.9025L171.083 81.0949L190.989 69.6076C193.697 72.4865 195.768 75.9641 196.984 79.8122L177.003 91.3469L175.615 92.1641L174.219 89.7507L171.083 84.3159L169.687 81.9025Z" fill="#DEDEFF"/>
<path d="M145.781 80.1732C146.959 76.2967 148.983 72.8001 151.634 69.8832L171.074 81.1044L172.47 81.912L171.074 84.3254L167.938 89.7602L166.551 92.1641L165.164 91.3565L145.781 80.1732Z" fill="#DEDEFF"/>
<path d="M171.083 43.8017C195.416 43.8017 215.217 63.6027 215.217 87.936C215.217 112.269 195.416 132.07 171.083 132.07C146.75 132.07 126.949 112.269 126.949 87.936C126.949 63.6027 146.75 43.8017 171.083 43.8017ZM171.083 121.049C189.335 121.049 204.186 106.198 204.186 87.9455C204.186 69.6932 189.335 54.8424 171.083 54.8424C152.831 54.8424 137.98 69.6932 137.98 87.9455C137.98 106.198 152.831 121.049 171.083 121.049Z" fill="white"/>
<path d="M202.295 56.7332C219.503 73.9403 219.503 101.941 202.295 119.148C185.088 136.355 157.088 136.355 139.88 119.148L140.118 118.911C144.099 114.93 150.189 114.217 155.121 116.934C167.701 123.851 183.853 121.989 194.504 111.348C205.155 100.696 207.018 84.5439 200.091 71.964C197.383 67.0327 198.096 60.9423 202.067 56.9612L202.295 56.7332Z" fill="#DEDEFF"/>
<path d="M171.083 98.8816C177.123 98.8816 182.019 93.9853 182.019 87.9454C182.019 81.9056 177.123 77.0093 171.083 77.0093C165.043 77.0093 160.147 81.9056 160.147 87.9454C160.147 93.9853 165.043 98.8816 171.083 98.8816Z" fill="white"/>
<path d="M260.387 131.367H252.919C251.313 131.367 250.012 130.065 250.012 128.46V94.4444C250.012 92.8387 251.313 91.537 252.919 91.537H260.387C261.993 91.537 263.295 92.8387 263.295 94.4444V128.46C263.295 130.065 261.993 131.367 260.387 131.367Z" fill="#7978A1"/>
<path d="M256.653 113.951C266.277 113.951 274.079 106.149 274.079 96.5253C274.079 86.9013 266.277 79.0996 256.653 79.0996C247.029 79.0996 239.228 86.9013 239.228 96.5253C239.228 106.149 247.029 113.951 256.653 113.951Z" fill="#7978A1"/>
<path d="M256.653 105.656C266.277 105.656 274.079 97.8544 274.079 88.2305C274.079 78.6066 266.277 70.8048 256.653 70.8048C247.029 70.8048 239.228 78.6066 239.228 88.2305C239.228 97.8544 247.029 105.656 256.653 105.656Z" fill="#DEDEFF"/>
<path d="M239.228 88.2305C239.228 97.8554 247.028 105.656 256.653 105.656V78.3109C256.653 73.7407 251.665 70.9093 247.741 73.2562C242.648 76.2871 239.228 81.8645 239.228 88.2305Z" fill="white"/>
<path d="M256.653 105.647C262.639 105.647 267.912 102.625 271.048 98.036C268.834 92.2306 263.238 88.0975 256.653 88.0975C250.068 88.0975 244.463 92.2306 242.258 98.036C245.394 102.635 250.667 105.647 256.653 105.647Z" fill="#BCBCE2"/>
<path d="M256.653 98.3211C262.226 98.3211 266.744 93.8034 266.744 88.2305C266.744 82.6576 262.226 78.14 256.653 78.14C251.08 78.14 246.562 82.6576 246.562 88.2305C246.562 93.8034 251.08 98.3211 256.653 98.3211Z" fill="#8886AF"/>
<path d="M260.387 124.735H252.919C251.313 124.735 250.012 123.433 250.012 121.828V90.1403C250.012 87.2518 252.359 84.905 255.247 84.905H258.05C260.938 84.905 263.285 87.2518 263.285 90.1403V121.818C263.295 123.433 261.993 124.735 260.387 124.735Z" fill="white"/>
<path d="M250.021 113.941V121.828C250.021 123.433 251.323 124.735 252.928 124.735H260.397C262.002 124.735 263.304 123.433 263.304 121.828V100.668C255.959 100.668 250.021 106.616 250.021 113.941Z" fill="#DEDEFF"/>
<path d="M88.4018 113.447C100.198 113.447 109.761 103.884 109.761 92.0881C109.761 80.2917 100.198 70.7288 88.4018 70.7288C76.6054 70.7288 67.0425 80.2917 67.0425 92.0881C67.0425 103.884 76.6054 113.447 88.4018 113.447Z" fill="#7978A1"/>
<path d="M88.1928 91.7841L78.1688 110.853C71.8883 107.423 67.5176 100.924 67.0806 93.3708L88.1928 91.7841Z" fill="#9896C1"/>
<path d="M109.676 90.1688L88.1929 91.784L98.0459 73.0377C104.459 76.2777 109.011 82.6626 109.676 90.1688Z" fill="#9896C1"/>
<path d="M88.4018 106.616C96.4252 106.616 102.929 100.112 102.929 92.0881C102.929 84.0646 96.4252 77.5604 88.4018 77.5604C80.3783 77.5604 73.874 84.0646 73.874 92.0881C73.874 100.112 80.3783 106.616 88.4018 106.616Z" fill="#DEDEFF"/>
<path d="M88.2118 91.803L81.3802 104.801C76.848 102.312 74.1686 97.7224 73.8931 92.8767L88.2118 91.803Z" fill="white"/>
<path d="M102.863 90.7009L88.2119 91.8031L94.8914 79.0996C94.9865 79.1376 95.072 79.1851 95.1575 79.2326C99.6707 81.5985 102.417 85.9977 102.863 90.7009Z" fill="white"/>
<path d="M309.215 21.5683C307.382 21.5683 305.899 23.0505 305.899 24.8843V29.8631H310.878C312.712 29.8631 314.194 28.3808 314.194 26.5471C314.194 23.8011 311.971 21.5683 309.215 21.5683Z" fill="#9797C1"/>
<path d="M32.8464 162.608C34.6802 162.608 36.1624 161.126 36.1624 159.292V154.313H31.1837C29.3499 154.313 27.8677 155.795 27.8677 157.629C27.8677 160.385 30.1005 162.608 32.8464 162.608Z" fill="#9797C1"/>
</g>
<defs>
<clipPath id="clip0_2243_776">
<rect width="336" height="184.186" fill="white"/>
</clipPath>
</defs>
</svg>

