<svg width="337" height="185" viewBox="0 0 337 185" fill="none" xmlns="http://www.w3.org/2000/svg">
<path d="M323.486 184.186H18.8127C11.9052 184.186 6.29932 178.589 6.29932 171.672V12.5134C6.29932 5.59636 11.9052 0 18.8127 0H323.496C330.404 0 336.009 5.59636 336.009 12.5134V171.672C336 178.58 330.403 184.186 323.486 184.186Z" fill="#C6C4E6"/>
<path d="M215.018 6.93606C217.384 2.65091 221.897 0 226.79 0H260.881H18.8127C11.9052 0 6.29932 5.59636 6.29932 12.5134V171.672C6.29932 178.58 11.8957 184.186 18.8127 184.186H109.02C113.913 184.186 118.416 181.525 120.792 177.25L215.018 6.93606Z" fill="#E9E9FF"/>
<path d="M239.247 6.93606L145.021 177.24C142.655 181.525 138.142 184.176 133.248 184.176H112.165H158.171C163.064 184.176 167.568 181.516 169.943 177.24L264.169 6.93606C266.535 2.65091 271.048 0 275.941 0H294.602H251.028C246.126 0 241.612 2.66041 239.247 6.93606Z" fill="#DEDEFF"/>
<path d="M27.8677 26.5471V157.629C27.8677 160.375 30.1005 162.608 32.8464 162.608H309.215C311.961 162.608 314.194 160.375 314.194 157.629V26.5471C314.194 23.8012 311.961 21.5684 309.215 21.5684H32.8464C30.1005 21.5684 27.8677 23.8012 27.8677 26.5471Z" fill="#7978A1"/>
<path d="M305.899 29.8632L36.1721 154.313L29.3311 161.154C30.2337 162.057 31.4784 162.608 32.8466 162.608H309.215C311.961 162.608 314.194 160.375 314.194 157.629V26.5472C314.194 25.1694 313.634 23.9248 312.74 23.0316L305.899 29.8632Z" fill="white"/>
<path d="M305.899 29.8632H36.1719V154.313H305.899V29.8632Z" fill="#A7A6D2"/>
<path d="M202.333 29.8632H36.1719V154.313H133.476L202.333 29.8632Z" fill="#BEBBDE"/>
<path d="M48.543 136.27H31.1934L36.1721 154.313L48.9421 141.543C49.4552 141.03 49.6547 140.28 49.4552 139.586L48.543 136.27Z" fill="#7978A1"/>
<path d="M47.1557 129.429H2.6319C1.17818 129.429 0 128.251 0 126.797V112.972C0 111.519 1.17818 110.34 2.6319 110.34H47.1557C48.6094 110.34 49.7876 111.519 49.7876 112.972V126.797C49.7781 128.251 48.5999 129.429 47.1557 129.429Z" fill="white"/>
<path d="M47.5453 142.037H2.6319C1.17818 142.037 0 140.859 0 139.405V125.581C0 124.127 1.17818 122.949 2.6319 122.949H47.5548C48.79 122.949 49.7876 123.947 49.7876 125.182V139.804C49.7781 141.04 48.7805 142.037 47.5453 142.037Z" fill="#7978A1"/>
<path d="M47.5453 136.061H2.6319C1.17818 136.061 0 134.883 0 133.429V119.604C0 118.151 1.17818 116.972 2.6319 116.972H47.5548C48.79 116.972 49.7876 117.97 49.7876 119.205V133.828C49.7781 135.063 48.7805 136.061 47.5453 136.061Z" fill="#BEBBDE"/>
<path d="M47.5452 116.982H39.8585C35.1743 116.982 30.9081 119.661 28.8748 123.88L22.9839 136.07H47.5452C48.7803 136.07 49.778 135.073 49.778 133.838V119.215C49.778 117.98 48.7803 116.982 47.5452 116.982Z" fill="#A7A6D2"/>
<path d="M48.543 68.458H31.1934L36.1721 86.5013L48.9421 73.7313C49.4552 73.2182 49.6547 72.4676 49.4552 71.774L48.543 68.458Z" fill="#7978A1"/>
<path d="M47.1557 61.6075H2.6319C1.17818 61.6075 0 60.4293 0 58.9851V45.1509C0 43.6972 1.17818 42.519 2.6319 42.519H47.1557C48.6094 42.519 49.7876 43.6972 49.7876 45.1509V58.9756C49.7781 60.4293 48.5999 61.6075 47.1557 61.6075Z" fill="white"/>
<path d="M47.5453 74.2159H2.6319C1.17818 74.2159 0 73.0472 0 71.5935V57.7689C0 56.3151 1.17818 55.137 2.6319 55.137H47.5548C48.79 55.137 49.7876 56.1346 49.7876 57.3698V71.9925C49.7781 73.2182 48.7805 74.2159 47.5453 74.2159Z" fill="#7978A1"/>
<path d="M47.5453 68.249H2.6319C1.17818 68.249 0 67.0708 0 65.617V51.7924C0 50.3387 1.17818 49.1605 2.6319 49.1605H47.5548C48.79 49.1605 49.7876 50.1582 49.7876 51.3934V66.0161C49.7781 67.2513 48.7805 68.249 47.5453 68.249Z" fill="#BEBBDE"/>
<path d="M47.5452 49.1605H39.8585C35.1743 49.1605 30.9081 51.8399 28.8748 56.0586L22.9839 68.249H47.5452C48.7803 68.249 49.778 67.2513 49.778 66.0161V51.3934C49.778 50.1677 48.7803 49.1605 47.5452 49.1605Z" fill="#A7A6D2"/>
<path d="M170.656 123.348C190.208 123.348 206.058 107.498 206.058 87.9455C206.058 68.3933 190.208 52.5431 170.656 52.5431C151.104 52.5431 135.253 68.3933 135.253 87.9455C135.253 107.498 151.104 123.348 170.656 123.348Z" fill="#8886AF"/>
<path d="M204.034 98.4731C203.844 101.362 203.274 104.231 202.334 106.996C202.296 107.091 202.267 107.195 202.229 107.29C202.115 107.613 201.992 107.946 201.859 108.269C201.773 108.488 201.697 108.697 201.602 108.915C201.516 109.124 201.421 109.324 201.336 109.533C201.193 109.856 201.051 110.188 200.899 110.502C200.861 110.587 200.813 110.673 200.775 110.758C197.535 117.362 192.167 122.74 185.554 125.98C185.459 126.027 185.374 126.075 185.279 126.113C184.965 126.265 184.642 126.407 184.319 126.55C184.11 126.645 183.901 126.74 183.692 126.825C183.483 126.911 183.274 126.987 183.065 127.072C182.732 127.206 182.4 127.329 182.067 127.443C181.972 127.472 181.886 127.51 181.791 127.538C180.205 128.08 178.589 128.498 176.946 128.792V111.975C173.126 112.545 169.174 112.545 165.097 111.842V128.792C163.463 128.498 161.838 128.08 160.252 127.538C160.157 127.51 160.071 127.481 159.976 127.443C159.644 127.329 159.311 127.196 158.978 127.072C158.769 126.987 158.56 126.911 158.351 126.825C158.142 126.74 157.933 126.645 157.724 126.55C157.401 126.407 157.078 126.265 156.765 126.113C156.67 126.065 156.584 126.027 156.489 125.98C146.731 121.191 139.662 111.737 138.199 100.544C138.075 100.497 137.952 100.44 137.819 100.392C131.918 98.4256 130.674 92.3067 127.956 86.5488C127.253 89.6747 126.873 92.9147 126.873 96.2403C126.873 108.412 131.823 119.443 139.814 127.434L139.795 127.453C143.349 131.006 147.358 133.809 151.634 135.89C151.757 135.947 151.881 136.013 152.004 136.07C152.422 136.27 152.85 136.46 153.278 136.65C153.553 136.773 153.838 136.897 154.114 137.011C154.389 137.125 154.674 137.23 154.95 137.344C155.387 137.515 155.833 137.686 156.271 137.847C156.394 137.895 156.518 137.933 156.641 137.971C161.145 139.519 165.972 140.384 170.998 140.384C176.015 140.384 180.841 139.529 185.345 137.98C185.478 137.933 185.602 137.895 185.735 137.847C186.172 137.695 186.609 137.524 187.046 137.353C187.331 137.239 187.616 137.135 187.891 137.021C188.167 136.907 188.442 136.783 188.718 136.659C189.146 136.469 189.583 136.279 190.01 136.08C190.124 136.023 190.248 135.966 190.362 135.909C194.647 133.819 198.657 131.016 202.21 127.462C205.764 123.908 208.567 119.899 210.657 115.614C210.714 115.49 210.78 115.376 210.837 115.253C211.037 114.825 211.227 114.398 211.417 113.97C211.541 113.694 211.664 113.419 211.778 113.134C211.892 112.858 211.997 112.573 212.111 112.288C212.282 111.851 212.453 111.414 212.605 110.968C212.652 110.844 212.69 110.711 212.728 110.587C214.277 106.084 215.132 101.257 215.132 96.2403C215.132 93.6464 214.904 91.1095 214.467 88.6391C211.189 92.0786 207.702 95.4231 204.034 98.4731Z" fill="#7978A1"/>
<path d="M137.847 101.219C137.971 101.267 138.094 101.324 138.227 101.371C138.047 99.9648 137.933 98.5301 137.933 97.0669C137.933 93.1523 138.617 89.3992 139.871 85.9121L160.128 97.6084C160.309 101.238 162.247 104.402 165.116 106.255V112.668C169.192 113.362 173.145 113.371 176.965 112.801V106.255C179.834 104.402 181.772 101.238 181.953 97.6084L202.201 85.9121C202.21 85.9502 202.229 85.9787 202.239 86.0167C202.277 86.1117 202.305 86.2162 202.343 86.3112C203.778 90.5013 204.338 94.9195 204.044 99.2997C207.711 96.2592 211.198 92.9052 214.514 89.4657C214.106 87.1473 213.526 84.8955 212.776 82.7197C212.728 82.5961 212.69 82.4631 212.652 82.3396C212.491 81.893 212.329 81.456 212.158 81.0189C212.054 80.7339 211.94 80.4583 211.825 80.1733C211.711 79.8977 211.588 79.6127 211.464 79.3371C211.274 78.9096 211.084 78.482 210.885 78.0544C210.828 77.9309 210.761 77.8169 210.704 77.6934C208.623 73.4082 205.811 69.3986 202.258 65.8451L202.239 65.8641C194.248 57.8734 183.217 52.9231 171.045 52.9231C150.038 52.9231 132.422 67.6789 127.994 87.3659C130.702 93.1333 131.947 99.2522 137.847 101.219ZM171.036 63.9638C181.136 63.9638 190.181 68.515 196.262 75.6601L177.079 86.7388L176.033 87.3374C174.532 86.5677 172.841 86.1212 171.036 86.1212C169.23 86.1212 167.539 86.5677 166.038 87.3374L156.584 81.874L145.809 75.6506C151.89 68.515 160.936 63.9638 171.036 63.9638Z" fill="#5E5E85"/>
<path d="M218.239 71.8596C217.716 70.4154 217.051 68.9996 216.262 67.6314C215.597 66.4818 214.866 65.3986 214.068 64.3914C213.469 63.6313 212.405 63.4413 211.569 63.9164L204.804 67.8215C205.697 71.1945 207.312 74.653 208.291 77.8645C208.433 78.3206 208.566 78.7861 208.699 79.2422L217.384 74.2254C218.21 73.7504 218.562 72.7527 218.239 71.8596Z" fill="#7978A1"/>
<path d="M136.241 75.4796C137.106 73.1137 138.075 70.9284 139.386 68.9901L130.711 63.9828C129.885 63.5078 128.839 63.6978 128.231 64.4294C127.243 65.6076 126.35 66.8808 125.561 68.2585C124.896 69.4082 124.326 70.5864 123.851 71.7835C123.5 72.6767 123.861 73.7028 124.697 74.1874L135.015 80.1448C135.272 78.4821 135.728 76.8858 136.241 75.4796Z" fill="#8886AF"/>
<path d="M165.164 143.881V123.167C165.164 122.094 166.038 121.22 167.111 121.22H175.055C176.128 121.22 177.002 122.094 177.002 123.167V143.995C177.002 144.954 176.299 145.781 175.34 145.923C174.066 146.113 172.765 146.208 171.435 146.208C169.848 146.208 168.29 146.075 166.779 145.809C165.848 145.638 165.164 144.831 165.164 143.881Z" fill="#7978A1"/>
<path d="M165.164 137.99V117.276C165.164 116.203 166.038 115.329 167.111 115.329H175.055C176.128 115.329 177.002 116.203 177.002 117.276V138.104C177.002 139.063 176.299 139.89 175.34 140.032C174.066 140.223 172.765 140.318 171.435 140.318C169.848 140.318 168.29 140.184 166.779 139.918C165.848 139.747 165.164 138.94 165.164 137.99Z" fill="#DEDEFF"/>
<path d="M217.383 68.0495L199.445 78.406C198.514 78.9476 197.326 78.6246 196.784 77.6934L192.813 70.8144C192.271 69.8832 192.594 68.6956 193.525 68.154L211.559 57.7404C212.395 57.2558 213.459 57.4553 214.058 58.2154C214.856 59.2226 215.597 60.3058 216.253 61.4554C217.041 62.8332 217.707 64.2394 218.229 65.6836C218.562 66.5672 218.21 67.5744 217.383 68.0495Z" fill="white"/>
<path d="M130.702 57.7974L148.641 68.154C149.572 68.6956 149.895 69.8833 149.353 70.8144L145.382 77.6935C144.84 78.6246 143.652 78.9476 142.721 78.4061L124.688 67.9925C123.851 67.5079 123.49 66.4912 123.842 65.5886C124.317 64.3914 124.887 63.2132 125.552 62.0636C126.341 60.6859 127.243 59.4127 128.222 58.2345C128.84 57.5124 129.875 57.3223 130.702 57.7974Z" fill="white"/>
<path d="M165.164 122.787V89.7508H177.012V122.778C175.083 123.12 173.116 123.31 171.092 123.31C169.059 123.319 167.083 123.129 165.164 122.787Z" fill="#BCBCE2"/>
<path d="M204.224 75.6506L175.615 92.1641L169.696 81.9026L198.305 65.389C199.568 66.8808 200.718 68.496 201.725 70.2538C202.732 72.0021 203.559 73.8073 204.224 75.6506Z" fill="#BCBCE2"/>
<path d="M143.871 65.389L172.48 81.9026L166.551 92.1641L137.942 75.6506C138.607 73.8073 139.434 72.0116 140.441 70.2538C141.457 68.5055 142.607 66.8808 143.871 65.389Z" fill="#BCBCE2"/>
<path d="M165.164 113.999V89.7508H177.002V114.151C175.207 114.54 173.344 114.73 171.435 114.73C169.278 114.74 167.178 114.483 165.164 113.999Z" fill="#DEDEFF"/>
<path d="M169.687 81.9025L171.083 81.0949L190.989 69.6077C193.697 72.4866 195.768 75.9641 196.984 79.8122L177.003 91.347L175.615 92.1641L174.219 89.7508L171.083 84.3159L169.687 81.9025Z" fill="#DEDEFF"/>
<path d="M145.781 80.1732C146.959 76.2967 148.983 72.8001 151.634 69.8832L171.074 81.1044L172.47 81.912L171.074 84.3254L167.938 89.7602L166.551 92.1641L165.164 91.3565L145.781 80.1732Z" fill="#DEDEFF"/>
<path d="M171.083 43.8018C195.416 43.8018 215.217 63.6028 215.217 87.936C215.217 112.269 195.416 132.07 171.083 132.07C146.75 132.07 126.949 112.269 126.949 87.936C126.949 63.6028 146.75 43.8018 171.083 43.8018ZM171.083 121.049C189.335 121.049 204.186 106.198 204.186 87.9455C204.186 69.6932 189.335 54.8425 171.083 54.8425C152.831 54.8425 137.98 69.6932 137.98 87.9455C137.98 106.198 152.831 121.049 171.083 121.049Z" fill="white"/>
<path d="M202.295 56.7333C219.503 73.9404 219.503 101.941 202.295 119.148C185.088 136.355 157.088 136.355 139.88 119.148L140.118 118.911C144.099 114.93 150.189 114.217 155.121 116.934C167.701 123.852 183.853 121.989 194.504 111.348C205.155 100.697 207.018 84.544 200.091 71.9641C197.383 67.0329 198.096 60.9424 202.067 56.9613L202.295 56.7333Z" fill="#DEDEFF"/>
<path d="M171.083 98.8817C177.123 98.8817 182.019 93.9854 182.019 87.9455C182.019 81.9056 177.123 77.0093 171.083 77.0093C165.043 77.0093 160.147 81.9056 160.147 87.9455C160.147 93.9854 165.043 98.8817 171.083 98.8817Z" fill="white"/>
<path d="M260.387 131.367H252.919C251.313 131.367 250.012 130.066 250.012 128.46V94.4446C250.012 92.8388 251.313 91.5371 252.919 91.5371H260.387C261.993 91.5371 263.295 92.8388 263.295 94.4446V128.46C263.295 130.066 261.993 131.367 260.387 131.367Z" fill="#7978A1"/>
<path d="M256.653 113.951C266.277 113.951 274.079 106.149 274.079 96.5254C274.079 86.9015 266.277 79.0997 256.653 79.0997C247.029 79.0997 239.228 86.9015 239.228 96.5254C239.228 106.149 247.029 113.951 256.653 113.951Z" fill="#7978A1"/>
<path d="M256.653 105.656C266.277 105.656 274.079 97.8545 274.079 88.2306C274.079 78.6067 266.277 70.8049 256.653 70.8049C247.029 70.8049 239.228 78.6067 239.228 88.2306C239.228 97.8545 247.029 105.656 256.653 105.656Z" fill="#DEDEFF"/>
<path d="M239.228 88.2306C239.228 97.8556 247.028 105.656 256.653 105.656V78.3111C256.653 73.7409 251.665 70.9094 247.741 73.2563C242.648 76.2873 239.228 81.8646 239.228 88.2306Z" fill="white"/>
<path d="M256.653 105.647C262.639 105.647 267.912 102.625 271.048 98.0361C268.834 92.2307 263.238 88.0976 256.653 88.0976C250.068 88.0976 244.463 92.2307 242.258 98.0361C245.394 102.635 250.667 105.647 256.653 105.647Z" fill="#BCBCE2"/>
<path d="M256.653 98.3212C262.226 98.3212 266.744 93.8035 266.744 88.2306C266.744 82.6578 262.226 78.1401 256.653 78.1401C251.08 78.1401 246.562 82.6578 246.562 88.2306C246.562 93.8035 251.08 98.3212 256.653 98.3212Z" fill="#8886AF"/>
<path d="M260.387 124.735H252.919C251.313 124.735 250.012 123.434 250.012 121.828V90.1404C250.012 87.252 252.359 84.9051 255.247 84.9051H258.05C260.938 84.9051 263.285 87.252 263.285 90.1404V121.818C263.295 123.434 261.993 124.735 260.387 124.735Z" fill="white"/>
<path d="M250.021 113.942V121.828C250.021 123.434 251.323 124.735 252.928 124.735H260.397C262.002 124.735 263.304 123.434 263.304 121.828V100.668C255.959 100.668 250.021 106.616 250.021 113.942Z" fill="#DEDEFF"/>
<path d="M88.4018 113.447C100.198 113.447 109.761 103.885 109.761 92.0882C109.761 80.2917 100.198 70.7289 88.4018 70.7289C76.6054 70.7289 67.0425 80.2917 67.0425 92.0882C67.0425 103.885 76.6054 113.447 88.4018 113.447Z" fill="#7978A1"/>
<path d="M88.1928 91.7841L78.1688 110.853C71.8883 107.423 67.5176 100.924 67.0806 93.3708L88.1928 91.7841Z" fill="#9896C1"/>
<path d="M109.676 90.1688L88.1929 91.7841L98.0459 73.0377C104.459 76.2777 109.011 82.6627 109.676 90.1688Z" fill="#9896C1"/>
<path d="M88.4018 106.616C96.4252 106.616 102.929 100.112 102.929 92.0882C102.929 84.0647 96.4252 77.5604 88.4018 77.5604C80.3783 77.5604 73.874 84.0647 73.874 92.0882C73.874 100.112 80.3783 106.616 88.4018 106.616Z" fill="#DEDEFF"/>
<path d="M88.2118 91.8031L81.3802 104.801C76.848 102.312 74.1686 97.7225 73.8931 92.8768L88.2118 91.8031Z" fill="white"/>
<path d="M102.863 90.7009L88.2119 91.8031L94.8914 79.0997C94.9865 79.1377 95.072 79.1852 95.1575 79.2327C99.6707 81.5986 102.417 85.9977 102.863 90.7009Z" fill="white"/>
<path d="M309.215 21.5684C307.382 21.5684 305.899 23.0506 305.899 24.8844V29.8631H310.878C312.712 29.8631 314.194 28.3809 314.194 26.5471C314.194 23.8012 311.971 21.5684 309.215 21.5684Z" fill="#9797C1"/>
<path d="M32.8464 162.608C34.6802 162.608 36.1624 161.126 36.1624 159.292V154.313H31.1837C29.3499 154.313 27.8677 155.795 27.8677 157.629C27.8677 160.385 30.1005 162.608 32.8464 162.608Z" fill="#9797C1"/>
</svg>
