<svg width="200" height="200" viewBox="0 0 200 200" fill="none" xmlns="http://www.w3.org/2000/svg">
<path d="M161.081 24.2724L135.307 9.41593C113.546 -3.13864 86.7255 -3.13864 64.9515 9.41593L39.1776 24.2724C17.4035 36.827 4 60.0311 4 85.127V114.853C4 139.962 17.4035 163.153 39.1776 175.708L64.9515 190.577C86.7123 203.132 113.533 203.132 135.307 190.577L161.081 175.708C182.841 163.153 196.258 139.962 196.258 114.853V85.127C196.258 60.0311 182.841 36.827 161.081 24.2724Z" fill="#FFE286"/>
<path d="M16.1851 45.6251C21.8008 52.7822 35.2837 53.2981 47.5482 46.4983C60.647 39.2222 67.3885 26.3369 62.5808 17.7114C61.5609 15.8725 60.0775 14.4041 58.2895 13.2664L39.1776 24.2863C29.8402 29.6574 22.0392 37.0129 16.1851 45.6251Z" fill="white"/>
<path d="M161.08 24.2732L137.108 10.4486L40.9788 176.754L64.9514 190.578C86.7122 203.133 113.532 203.133 135.307 190.578L161.08 175.709C182.841 163.154 196.258 139.963 196.258 114.854V85.1278C196.258 60.0319 182.841 36.8278 161.08 24.2732Z" fill="#FAAD26"/>
<path d="M161.08 24.2731L150.432 18.1348L54.3027 184.44L64.9514 190.578C67.6135 192.113 70.3419 193.449 73.1233 194.6L168.656 29.3267C166.259 27.5011 163.729 25.8077 161.08 24.2731Z" fill="#FCCE60"/>
<path d="M40.5681 65.6544C44.8726 58.2063 51.0976 51.9885 58.5675 47.6758L84.3414 32.8061C99.5064 24.0615 118.34 24.0615 133.505 32.8061L159.279 47.6758C174.444 56.4203 183.861 72.7188 183.861 90.1946V119.921C183.861 128.533 181.583 137.013 177.279 144.474C172.974 151.922 166.749 158.14 159.279 162.453L133.505 177.323C118.34 186.067 99.5064 186.067 84.3414 177.323L58.5675 162.453C43.4025 153.708 33.9856 137.41 33.9856 119.934V90.2079C33.9856 81.5956 36.2637 73.1024 40.5681 65.6544Z" fill="#FFE286"/>
<path d="M31.774 60.5743C36.0784 53.1262 42.3034 46.9084 49.7733 42.5957L75.5472 27.726C90.7123 18.9815 109.546 18.9815 124.711 27.726L150.485 42.5957C165.65 51.3402 175.067 67.6387 175.067 85.1145V114.841C175.067 123.453 172.789 131.933 168.484 139.394C164.18 146.842 157.955 153.06 150.485 157.373L124.711 172.242C109.546 180.987 90.7123 180.987 75.5472 172.242L49.7733 157.373C34.6083 148.641 25.1914 132.343 25.1914 114.867V85.141C25.1914 76.5288 27.4695 68.0356 31.774 60.5743Z" fill="#BE541C"/>
<path d="M170.658 157.081C175.152 153.191 176.422 147.302 173.495 143.929C170.568 140.555 164.552 140.974 160.058 144.864C155.564 148.754 154.294 154.642 157.221 158.016C160.148 161.39 166.164 160.971 170.658 157.081Z" fill="#FFF3D2"/>
<path d="M80.1561 33.9967L54.965 48.5225C48.2765 52.3854 42.6873 57.9549 38.8331 64.6357C34.9657 71.3165 32.926 78.9366 32.926 86.6624V116.693C32.926 130.345 40.2105 142.953 52.0512 149.779L90.6061 172.004C101.069 178.037 114.022 178.341 124.512 172.362C124.578 172.322 124.658 172.282 124.724 172.243L150.498 157.373C157.955 153.073 164.18 146.856 168.497 139.394C172.802 131.946 175.08 123.453 175.08 114.841V85.1278C175.08 85.0485 175.08 84.9691 175.08 84.8897C175.014 72.8246 168.285 61.765 157.822 55.7324L120.088 33.9967C107.745 26.8662 92.5133 26.8662 80.1561 33.9967Z" fill="#EA8914"/>
<path d="M17.1253 73.8036C20.9655 73.8036 24.0787 70.694 24.0787 66.8582C24.0787 63.0224 20.9655 59.9128 17.1253 59.9128C13.285 59.9128 10.1719 63.0224 10.1719 66.8582C10.1719 70.694 13.285 73.8036 17.1253 73.8036Z" fill="white"/>
<path d="M153.212 98.6349V110.541C153.212 111.957 152.842 113.346 152.126 114.563L134.14 145.678C130.922 151.248 124.935 154.7 118.512 154.7H82.8706C76.4602 154.7 70.4736 151.248 67.2552 145.691L50.7657 117.169C50.7657 117.156 50.7525 117.156 50.7525 117.143C50.024 115.873 49.6797 114.417 49.6797 112.949V101.334C49.7194 101.215 49.7724 101.109 49.8254 101.003C49.8254 100.99 49.8254 100.99 49.8254 100.99C49.7327 100.209 49.6797 99.4286 49.6797 98.6481C49.6797 95.5392 50.4744 92.4303 52.0902 89.6522L68.5797 61.1167C71.7981 55.5339 77.7582 52.1075 84.2083 52.1075H117.187C123.637 52.1075 129.597 55.5339 132.816 61.1167L135.928 66.501C136.087 66.7788 136.14 67.0434 136.14 67.2683V76.3832C136.14 77.4416 135.279 78.3015 134.22 78.3015H84.142C82.897 78.3015 81.7315 78.9629 81.109 80.0477L68.275 102.26L82.4335 126.76C83.056 127.832 84.2215 128.507 85.4665 128.507H115.929C117.174 128.507 118.326 127.832 118.962 126.76L124.882 116.508H103.214L103.28 124.009C103.294 124.723 102.459 125.12 101.903 124.657L83.7712 109.549C83.3474 109.192 83.1354 108.689 83.1354 108.186V98.701C83.1354 98.1983 83.3474 97.6956 83.7579 97.3384L101.837 82.1247C102.393 81.6617 103.214 82.0454 103.214 82.7597V90.3137H144.445C145.743 90.3137 147.04 90.5253 148.219 91.0413C151.544 92.5229 153.212 95.5789 153.212 98.6349Z" fill="#BE541C"/>
<path d="M132.817 61.1299C129.598 55.5603 123.638 52.1207 117.201 52.1207H84.2224C77.7723 52.1207 71.8122 55.5603 68.5938 61.1299L52.0911 89.6654C48.8726 95.2217 48.8726 102.127 52.0911 107.684L68.5805 136.219C71.7857 141.775 77.7723 145.228 84.1959 145.228H117.188C123.612 145.228 129.598 141.775 132.817 136.219L152.101 102.868C152.127 102.802 152.154 102.749 152.193 102.696C154.352 98.7407 153.081 93.3828 148.419 91.1603C147.187 90.5782 145.81 90.3401 144.459 90.3401H103.228V82.7862C103.228 82.0718 102.394 81.6881 101.851 82.1512L83.7721 97.3648C82.9244 98.0792 82.9244 99.3757 83.7721 100.09L101.904 115.211C102.447 115.674 103.281 115.277 103.281 114.563L103.215 107.049H130.366L118.963 126.76C118.34 127.845 117.188 128.507 115.93 128.507H85.4674C84.2224 128.507 83.0569 127.845 82.4344 126.76L67.2031 100.421C66.5806 99.336 66.5806 98.013 67.2031 96.9282L82.4344 70.5888C83.0569 69.504 84.2091 68.8425 85.4674 68.8425H134.591C135.399 68.8425 135.797 68.3001 135.929 68.0752C136.062 67.8503 136.326 67.2285 135.929 66.5274L132.817 61.1299Z" fill="#FFF4B3"/>
<path d="M148.419 91.1338C147.187 90.5517 145.81 90.3136 144.445 90.3136H103.493L93.2817 107.988L101.904 115.171C102.447 115.634 103.281 115.238 103.281 114.523L103.215 107.009H130.366L118.963 126.76C118.34 127.845 117.188 128.506 115.93 128.506H85.4674C84.2224 128.506 83.0569 127.845 82.4344 126.76L73.7195 141.842C76.7392 143.998 80.3947 145.215 84.2092 145.215H117.201C123.625 145.215 129.612 141.762 132.83 136.206L152.114 102.855C152.141 102.789 152.167 102.736 152.207 102.683C154.352 98.7274 153.081 93.3563 148.419 91.1338Z" fill="#FFE286"/>
<path d="M134.591 68.8425C135.399 68.8425 135.797 68.3001 135.929 68.0752C136.062 67.8503 136.326 67.2285 135.929 66.5274L132.817 61.1431C130.909 57.8358 128.022 55.2825 124.645 53.7479L115.917 68.8425H134.591Z" fill="#FFE286"/>
<path d="M59.9053 84.7441C63.4548 87.6545 69.097 87.1386 74.6994 83.9636L82.4343 70.5888C83.0567 69.504 84.209 68.8425 85.4673 68.8425H88.434C91.4935 62.2543 91.6525 55.772 88.5003 52.1207H84.209C77.7589 52.1207 71.7989 55.5603 68.5804 61.1299L57.2563 80.7224C57.7994 82.3364 58.6603 83.7122 59.9053 84.7441Z" fill="white"/>
<path d="M59.071 98.6745C61.3825 98.6745 63.2563 96.8028 63.2563 94.4941C63.2563 92.1853 61.3825 90.3136 59.071 90.3136C56.7596 90.3136 54.8857 92.1853 54.8857 94.4941C54.8857 96.8028 56.7596 98.6745 59.071 98.6745Z" fill="white"/>
</svg>
