<svg width="194" height="203" viewBox="0 0 194 203" fill="none" xmlns="http://www.w3.org/2000/svg">
<path d="M158.504 24.5206L132.496 9.51223C110.538 -3.17074 83.4751 -3.17074 61.5037 9.51223L35.4963 24.5206C13.5249 37.2036 0 60.645 0 85.9976V116.028C0 141.394 13.5249 164.822 35.4963 177.505L61.5037 192.527C83.4617 205.21 110.525 205.21 132.496 192.527L158.504 177.505C180.462 164.822 194 141.394 194 116.028V85.9976C194 60.645 180.462 37.2036 158.504 24.5206Z" fill="#DEDEFF"/>
<path d="M12.2952 46.091C17.9617 53.3212 31.5669 53.8424 43.9425 46.973C57.16 39.6225 63.9626 26.6054 59.1112 17.8917C58.0822 16.0341 56.5853 14.5506 54.7811 13.4012L35.496 24.5339C26.074 29.9599 18.2023 37.3906 12.2952 46.091Z" fill="white"/>
<path d="M158.504 24.5205L134.314 10.5546L37.3137 178.56L61.5036 192.526C83.4616 205.209 110.525 205.209 132.496 192.526L158.504 177.505C180.462 164.822 194 141.394 194 116.028V85.9975C194 60.6449 180.462 37.2035 158.504 24.5205Z" fill="#A7A6D2"/>
<path d="M158.504 24.5206L147.759 18.3195L50.7585 186.325L61.5037 192.527C64.1899 194.077 66.943 195.427 69.7496 196.589L166.148 29.6259C163.729 27.7816 161.177 26.0709 158.504 24.5206Z" fill="#D7D7FF"/>
<path d="M36.8995 66.325C41.243 58.8007 47.5243 52.5194 55.062 48.1625L81.0694 33.1407C96.3718 24.3068 115.376 24.3068 130.679 33.1407L156.686 48.1625C171.989 56.9965 181.491 73.4616 181.491 91.1162V121.146C181.491 129.847 179.192 138.413 174.849 145.951C170.505 153.475 164.224 159.757 156.686 164.113L130.679 179.135C115.376 187.969 96.3718 187.969 81.0694 179.135L55.062 164.113C39.7595 155.279 30.2573 138.814 30.2573 121.16V91.1296C30.2573 82.4293 32.556 73.8492 36.8995 66.325Z" fill="#DEDEFF"/>
<path d="M28.0255 61.193C32.369 53.6687 38.6503 47.3874 46.1879 43.0306L72.1954 28.0088C87.4978 19.1748 106.502 19.1748 121.805 28.0088L147.812 43.0306C163.114 51.8645 172.617 68.3297 172.617 85.9842V116.014C172.617 124.715 170.318 133.281 165.975 140.819C161.631 148.343 155.35 154.625 147.812 158.981L121.805 174.003C106.502 182.837 87.4978 182.837 72.1954 174.003L46.1879 158.981C30.8855 150.161 21.3833 133.696 21.3833 116.041V86.011C21.3833 77.3107 23.682 68.7306 28.0255 61.193Z" fill="#5E5B89"/>
<path d="M168.168 158.686C172.703 154.756 173.984 148.808 171.031 145.4C168.077 141.992 162.007 142.415 157.472 146.345C152.937 150.274 151.655 156.223 154.609 159.631C157.562 163.039 163.633 162.616 168.168 158.686Z" fill="white"/>
<path d="M76.8465 34.3437L51.4271 49.018C44.678 52.9204 39.0382 58.5469 35.1491 65.296C31.2466 72.0451 29.1885 79.7431 29.1885 87.548V117.886C29.1885 131.678 36.539 144.414 48.4869 151.31L87.3911 173.763C97.9491 179.857 111.02 180.164 121.604 174.124C121.671 174.084 121.751 174.043 121.818 174.003L147.826 158.982C155.35 154.638 161.631 148.357 165.988 140.819C170.332 133.295 172.63 124.715 172.63 116.015V85.9977C172.63 85.9175 172.63 85.8373 172.63 85.7571C172.563 73.5687 165.774 62.3959 155.216 56.3016L117.141 34.3437C104.685 27.1402 89.3156 27.1402 76.8465 34.3437Z" fill="#8784B2"/>
<path d="M13.2442 74.5576C17.1192 74.5576 20.2606 71.4162 20.2606 67.5412C20.2606 63.6661 17.1192 60.5248 13.2442 60.5248C9.36913 60.5248 6.22778 63.6661 6.22778 67.5412C6.22778 71.4162 9.36913 74.5576 13.2442 74.5576Z" fill="white"/>
<path d="M99.9537 108.062L94.8885 101.3C94.7816 101.099 94.5678 100.952 94.3272 100.952H80.7354C80.3746 100.952 80.0806 101.246 80.0806 101.607V123.418C80.0806 123.739 79.8667 124.006 79.5594 124.073C78.7976 124.207 77.9289 124.3 76.98 124.354C75.8039 124.421 74.3873 124.447 72.7301 124.447C69.6696 124.447 66.9967 123.926 64.7113 122.87C63.5887 122.362 62.573 121.734 61.6241 121.026C61.29 120.237 60.9826 119.409 60.7287 118.54C59.9669 115.894 59.5793 112.954 59.5793 109.706C59.5793 103.024 61.1163 97.7583 64.2168 93.8959C67.3041 90.0469 72.3158 88.1224 79.252 88.1224C82.3659 88.1224 85.2527 88.5234 87.8988 89.3119C90.2644 90.0202 92.3893 90.8488 94.2737 91.7977C94.6212 91.9714 95.0355 91.811 95.1692 91.4368L99.0315 80.7051C99.1251 80.4512 99.0449 80.1972 98.8712 80.0101L93.806 73.2477C93.7525 73.1408 93.6723 73.0472 93.5521 72.9804C93.0442 72.6997 92.3626 72.3389 91.4939 71.9246C90.3178 71.3499 88.821 70.802 87.0034 70.254C85.1858 69.7194 83.0208 69.2383 80.5083 68.824C77.9957 68.4097 75.1758 68.2092 72.0618 68.2092C67.4778 68.2092 63.161 68.971 59.1249 70.4946C55.0755 72.0181 51.5606 74.2634 48.5669 77.2303C45.5733 80.1839 43.2211 83.8057 41.4971 88.069C39.7731 92.3323 38.9177 97.2371 38.9177 102.77C38.9177 108.249 39.6929 113.114 41.2565 117.377C42.4326 120.598 43.9829 123.445 45.9074 125.904L50.9726 132.667C51.6274 133.522 52.3357 134.337 53.0842 135.099C55.9442 138.026 59.4056 140.258 63.4417 141.781C67.4778 143.305 71.995 144.066 76.9533 144.066C82.7401 144.066 87.6182 143.666 91.5607 142.877C95.2093 142.142 97.9356 141.447 99.7398 140.792C99.9938 140.699 100.154 140.458 100.154 140.177V108.543C100.168 108.356 100.087 108.183 99.9537 108.062Z" fill="#5E5B89"/>
<path d="M74.0666 81.1863C67.1304 81.1863 62.1187 83.1108 59.0315 86.9598C55.9442 90.8088 54.394 96.0744 54.394 102.77C54.394 106.018 54.7815 108.958 55.5433 111.604C56.3051 114.25 57.4544 116.522 58.978 118.433C60.5016 120.344 62.4127 121.828 64.7114 122.87C67.0101 123.913 69.683 124.447 72.7301 124.447C74.3873 124.447 75.804 124.421 76.9801 124.354C77.9289 124.3 78.7976 124.207 79.5594 124.073C79.8668 124.02 80.0806 123.739 80.0806 123.418V101.607C80.0806 101.246 80.3747 100.952 80.7355 100.952H94.3273C94.6881 100.952 94.9821 101.246 94.9821 101.607V133.255C94.9821 133.535 94.8218 133.776 94.5678 133.869C92.7636 134.524 90.0372 135.219 86.3887 135.954C82.4462 136.743 77.5681 137.144 71.7812 137.144C66.8096 137.144 62.3058 136.382 58.2697 134.858C54.2202 133.335 50.7722 131.103 47.9121 128.176C45.0521 125.249 42.8336 121.654 41.27 117.391C39.7063 113.128 38.9312 108.263 38.9312 102.783C38.9312 97.2505 39.7865 92.3457 41.5105 88.0824C43.2345 83.8191 45.5867 80.2107 48.5804 77.2437C51.574 74.2902 55.0889 72.0449 59.1384 70.508C63.1745 68.9844 67.4912 68.2227 72.0753 68.2227C75.1892 68.2227 78.0091 68.4231 80.5217 68.8374C83.0342 69.2517 85.1993 69.7329 87.0169 70.2674C88.8344 70.8154 90.3313 71.3633 91.5073 71.938C92.376 72.3657 93.0576 72.7131 93.5655 72.9938C93.8461 73.1542 93.9664 73.4883 93.8595 73.7823L89.9971 84.5141C89.8635 84.8883 89.4492 85.0486 89.1017 84.8749C87.2173 83.9394 85.0924 83.1108 82.7402 82.3891C80.0673 81.5872 77.1805 81.1863 74.0666 81.1863Z" fill="#E9E9FF"/>
<path d="M58.3097 87.9622C58.5503 87.6281 58.7775 87.2806 59.0314 86.9598C60.9827 84.5408 63.6957 82.8703 67.1704 81.9748C71.8213 77.8586 75.0422 73.0473 76.4855 68.343C75.0956 68.2361 73.6255 68.1826 72.0752 68.1826C67.4912 68.1826 63.1744 68.9444 59.1383 70.4813C55.0889 72.0049 51.574 74.2501 48.5803 77.2037C45.6 80.1706 43.2345 83.7791 41.5239 88.0424C41.0561 89.1917 40.6685 90.3945 40.321 91.6374C45.6936 92.3057 52.0952 91.0895 58.3097 87.9622Z" fill="white"/>
<path d="M46.2951 103.839C48.5537 103.839 50.3847 102.008 50.3847 99.7498C50.3847 97.4912 48.5537 95.6603 46.2951 95.6603C44.0365 95.6603 42.2056 97.4912 42.2056 99.7498C42.2056 102.008 44.0365 103.839 46.2951 103.839Z" fill="white"/>
<path d="M161.925 76.843L156.86 70.0805C156.753 69.88 156.539 69.733 156.299 69.733H102.8C102.44 69.733 102.146 70.027 102.146 70.3879V81.7745C102.146 81.9616 102.226 82.1353 102.359 82.2556L107.425 89.0181C107.531 89.2186 107.745 89.3656 107.986 89.3656H122.099V135.259C122.099 135.447 122.179 135.62 122.313 135.741L127.378 142.503C127.485 142.704 127.699 142.851 127.939 142.851H141.531C141.892 142.851 142.186 142.557 142.186 142.196V90.0204C142.186 89.6596 142.48 89.3656 142.841 89.3656H161.484C161.845 89.3656 162.139 89.0716 162.139 88.7107V77.3241C162.139 77.1236 162.059 76.9499 161.925 76.843Z" fill="#5E5B89"/>
<path d="M156.954 70.3879V81.7745C156.954 82.1353 156.66 82.4294 156.299 82.4294H137.655C137.294 82.4294 137 82.7234 137 83.0842V135.246C137 135.607 136.706 135.901 136.345 135.901H122.754C122.393 135.901 122.099 135.607 122.099 135.246V83.0842C122.099 82.7234 121.805 82.4294 121.444 82.4294H102.8C102.44 82.4294 102.146 82.1353 102.146 81.7745V70.3879C102.146 70.027 102.44 69.733 102.8 69.733H156.299C156.66 69.733 156.954 70.027 156.954 70.3879Z" fill="#D0D0FC"/>
<path d="M102.8 82.4294H121.444C121.805 82.4294 122.099 82.7234 122.099 83.0842V96.3552L137.468 69.733H102.8C102.44 69.733 102.146 70.027 102.146 70.3879V81.7745C102.146 82.1353 102.44 82.4294 102.8 82.4294Z" fill="#E9E9FF"/>
</svg>
