<svg width="200" height="200" viewBox="0 0 200 200" fill="none" xmlns="http://www.w3.org/2000/svg">
<g clip-path="url(#clip0_2984_745)">
<path d="M161.504 23.5206L135.496 8.51223C113.538 -4.17074 86.4751 -4.17074 64.5037 8.51223L38.4963 23.5206C16.5249 36.2036 3 59.645 3 84.9976V115.028C3 140.394 16.5249 163.822 38.4963 176.505L64.5037 191.527C86.4617 204.21 113.525 204.21 135.496 191.527L161.504 176.505C183.462 163.822 197 140.394 197 115.028V84.9976C197 59.645 183.462 36.2036 161.504 23.5206Z" fill="#DEDEFF"/>
<path d="M15.2951 45.0911C20.9616 52.3213 34.5668 52.8425 46.9423 45.9732C60.1599 38.6226 66.9625 25.6056 62.1111 16.8919C61.082 15.0342 59.5852 13.5507 57.781 12.4014L38.4959 23.5341C29.0739 28.9601 21.2022 36.3908 15.2951 45.0911Z" fill="white"/>
<path d="M161.504 23.5207L137.314 9.55469L40.3137 177.561L64.5036 191.527C86.4615 204.21 113.525 204.21 135.496 191.527L161.504 176.505C183.462 163.822 197 140.394 197 115.028V84.9976C197 59.6451 183.462 36.2036 161.504 23.5207Z" fill="#A7A6D2"/>
<path d="M161.504 23.5207L150.759 17.3196L53.7586 185.326L64.5037 191.527C67.19 193.077 69.9431 194.427 72.7496 195.589L169.148 28.626C166.729 26.7817 164.177 25.071 161.504 23.5207Z" fill="#D7D7FF"/>
<path d="M39.8995 65.3248C44.243 57.8006 50.5243 51.5192 58.062 47.1624L84.0694 32.1406C99.3718 23.3066 118.376 23.3066 133.679 32.1406L159.686 47.1624C174.989 55.9964 184.491 72.4615 184.491 90.1161V120.146C184.491 128.847 182.192 137.413 177.849 144.951C173.505 152.475 167.224 158.756 159.686 163.113L133.679 178.135C118.376 186.969 99.3718 186.969 84.0694 178.135L58.062 163.113C42.7595 154.279 33.2573 137.814 33.2573 120.16V90.1295C33.2573 81.4291 35.556 72.8491 39.8995 65.3248Z" fill="#DEDEFF"/>
<path d="M31.0254 60.193C35.3689 52.6687 41.6503 46.3874 49.1879 42.0306L75.1953 27.0088C90.4978 18.1748 109.502 18.1748 124.805 27.0088L150.812 42.0306C166.114 50.8645 175.617 67.3297 175.617 84.9842V115.014C175.617 123.715 173.318 132.281 168.974 139.819C164.631 147.343 158.35 153.625 150.812 157.981L124.805 173.003C109.502 181.837 90.4978 181.837 75.1953 173.003L49.1879 157.981C33.8855 149.161 24.3833 132.696 24.3833 115.041V85.011C24.3833 76.3107 26.682 67.7306 31.0254 60.193Z" fill="#5E5B89"/>
<path d="M171.168 157.686C175.703 153.756 176.985 147.808 174.031 144.4C171.078 140.991 165.007 141.415 160.472 145.344C155.938 149.274 154.656 155.223 157.609 158.631C160.563 162.039 166.633 161.616 171.168 157.686Z" fill="white"/>
<path d="M79.8464 33.3435L54.427 48.0178C47.6779 51.9203 42.0381 57.5468 38.149 64.2959C34.2465 71.045 32.1884 78.743 32.1884 86.5479V116.885C32.1884 130.678 39.5389 143.414 51.4868 150.31L90.391 172.763C100.949 178.857 114.02 179.164 124.604 173.123C124.671 173.083 124.751 173.043 124.818 173.003L150.826 157.981C158.35 153.638 164.631 147.357 168.988 139.819C173.332 132.295 175.63 123.715 175.63 115.014V84.9976C175.63 84.9174 175.63 84.8372 175.63 84.757C175.563 72.5685 168.774 61.3958 158.216 55.3015L120.141 33.3435C107.685 26.14 92.3155 26.14 79.8464 33.3435Z" fill="#8784B2"/>
<path d="M16.2442 73.5574C20.1192 73.5574 23.2606 70.4161 23.2606 66.5411C23.2606 62.666 20.1192 59.5247 16.2442 59.5247C12.3691 59.5247 9.22777 62.666 9.22777 66.5411C9.22777 70.4161 12.3691 73.5574 16.2442 73.5574Z" fill="white"/>
<path d="M102.954 107.062L97.8886 100.3C97.7817 100.099 97.5678 99.9524 97.3273 99.9524H83.7355C83.3747 99.9524 83.0806 100.246 83.0806 100.607V122.418C83.0806 122.739 82.8668 123.006 82.5594 123.073C81.7976 123.207 80.9289 123.3 79.9801 123.354C78.804 123.421 77.3873 123.447 75.7301 123.447C72.6696 123.447 69.9967 122.926 67.7114 121.87C66.5888 121.362 65.5731 120.734 64.6242 120.026C64.2901 119.237 63.9827 118.409 63.7288 117.54C62.967 114.894 62.5794 111.954 62.5794 108.706C62.5794 102.024 64.1163 96.7583 67.2169 92.8959C70.3041 89.0469 75.3158 87.1224 82.252 87.1224C85.366 87.1224 88.2527 87.5234 90.8989 88.3119C93.2644 89.0202 95.3894 89.8488 97.2738 90.7977C97.6213 90.9714 98.0356 90.811 98.1692 90.4368L102.032 79.7051C102.125 79.4512 102.045 79.1972 101.871 79.0101L96.8061 72.2477C96.7526 72.1408 96.6724 72.0472 96.5521 71.9804C96.0443 71.6997 95.3627 71.3389 94.494 70.9246C93.3179 70.3499 91.8211 69.802 90.0035 69.254C88.1859 68.7194 86.0208 68.2383 83.5083 67.824C80.9958 67.4097 78.1758 67.2092 75.0619 67.2092C70.4779 67.2092 66.1611 67.971 62.125 69.4946C58.0755 71.0181 54.5607 73.2634 51.567 76.2303C48.5733 79.1839 46.2212 82.8057 44.4971 87.069C42.7731 91.3323 41.9178 96.2371 41.9178 101.77C41.9178 107.249 42.6929 112.114 44.2566 116.377C45.4327 119.598 46.983 122.445 48.9074 124.904L53.9726 131.667C54.6275 132.522 55.3358 133.337 56.0842 134.099C58.9442 137.026 62.4057 139.258 66.4418 140.781C70.4779 142.305 74.9951 143.066 79.9533 143.066C85.7402 143.066 90.6183 142.666 94.5608 141.877C98.2093 141.142 100.936 140.447 102.74 139.792C102.994 139.699 103.154 139.458 103.154 139.177V107.543C103.168 107.356 103.087 107.183 102.954 107.062Z" fill="#5E5B89"/>
<path d="M77.0666 80.1863C70.1304 80.1863 65.1187 82.1108 62.0314 85.9598C58.9442 89.8088 57.3939 95.0744 57.3939 101.77C57.3939 105.018 57.7815 107.958 58.5433 110.604C59.3051 113.25 60.4544 115.522 61.978 117.433C63.5015 119.344 65.4127 120.828 67.7114 121.87C70.0101 122.913 72.683 123.447 75.7301 123.447C77.3873 123.447 78.804 123.421 79.98 123.354C80.9289 123.3 81.7976 123.207 82.5594 123.073C82.8668 123.02 83.0806 122.739 83.0806 122.418V100.607C83.0806 100.246 83.3746 99.9525 83.7355 99.9525H97.3273C97.6881 99.9525 97.9821 100.246 97.9821 100.607V132.255C97.9821 132.535 97.8217 132.776 97.5678 132.869C95.7636 133.524 93.0372 134.219 89.3887 134.954C85.4462 135.743 80.5681 136.144 74.7812 136.144C69.8096 136.144 65.3058 135.382 61.2697 133.858C57.2202 132.335 53.7721 130.103 50.9121 127.176C48.0521 124.249 45.8336 120.654 44.2699 116.391C42.7063 112.128 41.9311 107.263 41.9311 101.783C41.9311 96.2505 42.7865 91.3457 44.5105 87.0824C46.2345 82.8191 48.5867 79.2107 51.5804 76.2437C54.574 73.2902 58.0889 71.0449 62.1384 69.508C66.1745 67.9844 70.4912 67.2227 75.0753 67.2227C78.1892 67.2227 81.0091 67.4231 83.5217 67.8374C86.0342 68.2517 88.1993 68.7329 90.0168 69.2674C91.8344 69.8154 93.3313 70.3633 94.5073 70.938C95.376 71.3657 96.0576 71.7131 96.5655 71.9938C96.8461 72.1542 96.9664 72.4883 96.8595 72.7823L92.9971 83.5141C92.8635 83.8883 92.4492 84.0486 92.1017 83.8749C90.2173 82.9394 88.0923 82.1108 85.7402 81.3891C83.0673 80.5872 80.1805 80.1863 77.0666 80.1863Z" fill="#E9E9FF"/>
<path d="M61.3097 86.9622C61.5503 86.6281 61.7775 86.2806 62.0314 85.9598C63.9827 83.5408 66.6957 81.8703 70.1704 80.9748C74.8213 76.8586 78.0422 72.0473 79.4855 67.343C78.0956 67.2361 76.6255 67.1826 75.0752 67.1826C70.4912 67.1826 66.1744 67.9444 62.1383 69.4813C58.0889 71.0049 54.574 73.2501 51.5803 76.2037C48.6 79.1706 46.2345 82.7791 44.5239 87.0424C44.0561 88.1917 43.6685 89.3945 43.321 90.6374C48.6936 91.3057 55.0952 90.0895 61.3097 86.9622Z" fill="white"/>
<path d="M49.2951 102.839C51.5537 102.839 53.3846 101.008 53.3846 98.7497C53.3846 96.4911 51.5537 94.6602 49.2951 94.6602C47.0365 94.6602 45.2055 96.4911 45.2055 98.7497C45.2055 101.008 47.0365 102.839 49.2951 102.839Z" fill="white"/>
<path d="M164.925 75.8429L159.86 69.0804C159.753 68.8799 159.539 68.7329 159.299 68.7329H105.8C105.44 68.7329 105.145 69.0269 105.145 69.3878V80.7744C105.145 80.9615 105.226 81.1352 105.359 81.2555L110.424 88.018C110.531 88.2184 110.745 88.3655 110.986 88.3655H125.099V134.259C125.099 134.446 125.179 134.62 125.313 134.74L130.378 141.503C130.485 141.703 130.699 141.85 130.939 141.85H144.531C144.892 141.85 145.186 141.556 145.186 141.196V89.0203C145.186 88.6595 145.48 88.3655 145.841 88.3655H164.484C164.845 88.3655 165.139 88.0714 165.139 87.7106V76.324C165.139 76.1235 165.059 75.9498 164.925 75.8429Z" fill="#5E5B89"/>
<path d="M159.954 69.3878V80.7744C159.954 81.1352 159.66 81.4292 159.299 81.4292H140.655C140.294 81.4292 140 81.7233 140 82.0841V134.246C140 134.607 139.706 134.901 139.345 134.901H125.754C125.393 134.901 125.099 134.607 125.099 134.246V82.0841C125.099 81.7233 124.805 81.4292 124.444 81.4292H105.8C105.44 81.4292 105.145 81.1352 105.145 80.7744V69.3878C105.145 69.0269 105.44 68.7329 105.8 68.7329H159.299C159.66 68.7329 159.954 69.0269 159.954 69.3878Z" fill="#D0D0FC"/>
<path d="M105.8 81.4292H124.444C124.805 81.4292 125.099 81.7233 125.099 82.0841V95.3551L140.468 68.7329H105.8C105.44 68.7329 105.145 69.0269 105.145 69.3878V80.7744C105.145 81.1352 105.44 81.4292 105.8 81.4292Z" fill="#E9E9FF"/>
</g>
<defs>
<clipPath id="clip0_2984_745">
<rect width="200" height="200" fill="white"/>
</clipPath>
</defs>
</svg>
