<svg width="200" height="200" viewBox="0 0 200 200" fill="none" xmlns="http://www.w3.org/2000/svg">
<g clip-path="url(#clip0_511_292)">
<path d="M100.001 188.007C149.939 188.007 190.421 147.524 190.421 97.5869C190.421 47.6493 149.939 7.16687 100.001 7.16687C50.0637 7.16687 9.5813 47.6493 9.5813 97.5869C9.5813 147.524 50.0637 188.007 100.001 188.007Z" fill="#313058"/>
<path d="M63.7413 25.2734H29.268C28.3947 25.2734 27.688 25.9801 27.688 26.8534V61.3268V61.3334C27.688 62.2068 28.3947 62.9134 29.268 62.9134H36.1213C36.688 62.9134 37.208 62.6068 37.488 62.1134C43.8813 50.8401 53.2547 41.4801 64.5147 35.0734C65.008 34.7934 65.3147 34.2734 65.3147 33.7068V26.8534C65.3213 25.9801 64.6147 25.2734 63.7413 25.2734Z" fill="#3A3A70"/>
<path d="M42.808 40.3935C40.0814 43.1201 37.548 46.0535 35.228 49.1468V32.8135L42.808 40.3935Z" fill="#A959FF"/>
<path d="M51.548 32.8135C48.4547 35.1335 45.528 37.6668 42.8014 40.3935L35.228 32.8135H51.548Z" fill="#EB8CFF"/>
<path d="M136.261 25.2734H170.735C171.608 25.2734 172.315 25.9801 172.315 26.8534V61.3268V61.3334C172.315 62.2068 171.608 62.9134 170.735 62.9134H163.881C163.315 62.9134 162.795 62.6068 162.515 62.1134C156.121 50.8401 146.748 41.4801 135.488 35.0734C134.995 34.7934 134.688 34.2734 134.688 33.7068V26.8534C134.681 25.9801 135.388 25.2734 136.261 25.2734Z" fill="#3A3A70"/>
<path d="M157.195 40.3935C159.921 43.1201 162.455 46.0535 164.775 49.1468V32.8135L157.195 40.3935Z" fill="#6F93FF"/>
<path d="M148.455 32.8135C151.548 35.1335 154.475 37.6668 157.201 40.3935L164.781 32.8135H148.455Z" fill="#B7D7FF"/>
<path d="M136.261 169.9H170.735C171.608 169.9 172.315 169.193 172.315 168.32V133.847V133.84C172.315 132.967 171.608 132.26 170.735 132.26H163.881C163.315 132.26 162.795 132.567 162.515 133.06C156.121 144.333 146.748 153.693 135.488 160.1C134.995 160.38 134.688 160.9 134.688 161.467V168.32C134.681 169.193 135.388 169.9 136.261 169.9Z" fill="#3A3A70"/>
<path d="M157.195 154.78C159.921 152.053 162.455 149.12 164.775 146.027V162.36L157.195 154.78Z" fill="#A959FF"/>
<path d="M148.455 162.36C151.548 160.04 154.475 157.507 157.201 154.78L164.781 162.36H148.455Z" fill="#EB8CFF"/>
<path d="M63.7413 169.9H29.268C28.3947 169.9 27.688 169.193 27.688 168.32V133.847V133.84C27.688 132.967 28.3947 132.26 29.268 132.26H36.1213C36.688 132.26 37.208 132.567 37.488 133.06C43.8813 144.333 53.2547 153.693 64.5147 160.1C65.008 160.38 65.3147 160.9 65.3147 161.467V168.32C65.3213 169.193 64.6147 169.9 63.7413 169.9Z" fill="#3A3A70"/>
<path d="M42.808 154.78C40.0814 152.053 37.548 149.12 35.228 146.027V162.36L42.808 154.78Z" fill="#6F93FF"/>
<path d="M51.548 162.36C48.4547 160.04 45.528 157.507 42.8013 154.78L35.2213 162.36H51.548Z" fill="#B7D7FF"/>
<path d="M100.001 179.027C144.979 179.027 181.441 142.565 181.441 97.5869C181.441 52.6088 144.979 16.1469 100.001 16.1469C55.0233 16.1469 18.5614 52.6088 18.5614 97.5869C18.5614 142.565 55.0233 179.027 100.001 179.027Z" fill="#3A3A70"/>
<path d="M29.2147 57.2869L100.001 97.5935L19.548 110.28L19.5413 110.274C16.6747 92.0602 20.1013 73.3135 29.2147 57.2869Z" fill="#313058"/>
<path d="M180.461 84.9001L100.001 97.5935L170.788 137.887C179.901 121.86 183.328 103.113 180.461 84.9001Z" fill="#313058"/>
<path d="M62.4947 169.907L100.001 97.5935L28.488 136.587C36.2347 150.767 48.0814 162.427 62.4947 169.907Z" fill="#4C4C91"/>
<path d="M27.6813 60.0869L99.9946 97.5936L61.0013 26.0802C46.8213 33.8269 35.1613 45.6735 27.6813 60.0869Z" fill="#4C4C91"/>
<path d="M137.501 25.2736L99.9946 97.5869L171.508 58.6002C163.761 44.4136 151.915 32.7602 137.501 25.2736Z" fill="#4C4C91"/>
<path d="M172.315 135.093L100.001 97.5868L138.995 169.1C153.175 161.36 164.828 149.507 172.315 135.093Z" fill="#4C4C91"/>
<path d="M100.001 169.947C139.965 169.947 172.361 137.55 172.361 97.5869C172.361 57.6236 139.965 25.2269 100.001 25.2269C60.0379 25.2269 27.6412 57.6236 27.6412 97.5869C27.6412 137.55 60.0379 169.947 100.001 169.947Z" fill="#272640"/>
<path d="M130.601 128.187C130.601 144.827 117.321 158.36 100.795 158.78C100.528 158.787 100.268 158.787 100.001 158.787C99.7347 158.787 99.4747 158.787 99.2081 158.78C65.7747 158.36 38.8014 131.127 38.8014 97.5869C38.8014 64.0469 65.7814 36.8136 99.2081 36.3936C82.6881 36.8136 69.4014 50.3469 69.4014 66.9869C69.4014 83.8869 83.1081 97.5869 100.001 97.5869C116.901 97.5802 130.601 111.28 130.601 128.187Z" fill="#2D2D4A"/>
<path d="M110.581 44.0001C118.332 44.0001 124.615 37.7172 124.615 29.9668C124.615 22.2164 118.332 15.9335 110.581 15.9335C102.831 15.9335 96.548 22.2164 96.548 29.9668C96.548 37.7172 102.831 44.0001 110.581 44.0001Z" fill="#5B77FA"/>
<path d="M89.4214 179.234C97.1718 179.234 103.455 172.951 103.455 165.2C103.455 157.45 97.1718 151.167 89.4214 151.167C81.671 151.167 75.3881 157.45 75.3881 165.2C75.3881 172.951 81.671 179.234 89.4214 179.234Z" fill="#7D41E9"/>
<path d="M123.021 161.454L122.735 157.954L97.7213 159.987L98.1947 165.834C93.9413 166.594 96.768 166.96 92.568 168.114C93.088 178.234 101.841 185.847 111.861 185.034L116.261 184.674C116.528 184.654 116.735 184.42 116.715 184.154C116.668 183.56 116.341 183.02 115.821 182.747C115.768 182.72 115.721 182.694 115.668 182.667C109.601 179.314 110.708 170.787 116.375 168.28C118.588 167.3 120.381 165.56 121.688 163.527L123.021 161.454Z" fill="#7D41E9"/>
<path d="M127.301 152.374C127.695 160.847 121.408 168.467 112.888 168.994C105.968 169.427 100.781 175.454 101.341 182.34C101.695 186.68 104.261 190.327 107.835 192.247C108.355 192.52 108.688 193.06 108.735 193.647C108.755 193.92 108.561 194.154 108.288 194.174L96.828 195.107C86.788 195.927 77.9947 188.267 77.5213 178.1C77.068 168.42 84.6813 160.227 94.348 159.44L108.081 158.32L108.115 158.24C114.955 157.34 121.415 155.307 127.301 152.374Z" fill="#BC5FFF"/>
<path d="M91.6146 182.634C91.3812 177.614 94.2746 173.18 98.5479 171.02C98.7279 170.927 98.8346 170.74 98.8212 170.54C98.8012 170.267 98.5546 170.06 98.2812 170.094C91.8146 170.874 86.7946 176.44 87.1012 183C87.4346 190.054 93.5279 195.374 100.501 194.8L105.015 194.434C98.0412 195.007 91.9412 189.694 91.6146 182.634Z" fill="#DD77FF"/>
<path d="M84.0347 177.574C83.5814 167.887 91.1947 159.694 100.861 158.907L94.3547 159.434C84.688 160.22 77.0747 168.414 77.528 178.1C78.0014 188.267 86.7814 195.92 96.8347 195.107L103.341 194.58C93.288 195.394 84.508 187.74 84.0347 177.574Z" fill="#DD77FF"/>
<path d="M191.561 103.54L187.321 103.82C184.955 103.974 182.828 105.314 181.668 107.38C180.768 108.974 180.528 110.86 180.995 112.634L182.641 118.854C182.815 119.507 182.161 120.074 181.541 119.82L179.761 119.087C169.681 114.934 162.388 105.96 160.381 95.2469L157.568 80.2202L191.561 103.54Z" fill="#552CB7"/>
<path d="M148.068 65.0402L160.441 66.9068C170.428 68.4135 179.168 74.4202 184.161 83.2002L186.675 87.6202C189.155 91.9868 192.515 95.7935 196.541 98.8002L199.555 101.047C200.381 101.667 199.995 102.98 198.961 103.053L182.161 104.167C170.548 104.933 159.828 97.9068 155.908 86.9468L148.068 65.0402Z" fill="#8B4BF6"/>
<path d="M198.961 103.047L182.155 104.167C170.541 104.94 159.821 97.9068 155.908 86.9468L150.248 71.1401L151.328 71.1735L152.901 75.5801C156.821 86.5401 167.541 93.5735 179.148 92.8001C184.361 92.4535 189.488 94.0135 193.761 97.0268C194.655 97.6601 195.581 98.2535 196.535 98.8068L199.548 101.053C200.381 101.66 199.995 102.973 198.961 103.047Z" fill="#6E36DB"/>
<path d="M196.535 98.7936C192.188 96.2736 188.408 92.8936 185.428 88.8536L182.408 84.7536C176.435 76.6269 167.048 71.6802 156.941 71.3536L150.241 71.1336L148.061 65.0336L160.428 66.9136C170.421 68.4136 179.161 74.4202 184.155 83.1936L186.675 87.6202C189.155 91.9869 192.515 95.7869 196.535 98.7936Z" fill="#BC5FFF"/>
<path d="M156.168 76.9535L159.981 77.3268C164.275 77.7468 168.401 79.2202 171.988 81.6202L175.941 84.2668C176.548 84.6735 176.161 85.6135 175.448 85.4802L158.601 82.3602L156.168 76.9535Z" fill="#6E36DB"/>
<path d="M161.201 97.5803C161.201 131.12 134.235 158.354 100.795 158.774C117.321 158.354 130.601 144.82 130.601 128.18C130.601 111.28 116.901 97.5803 100.001 97.5803C83.108 97.5803 69.4014 83.8803 69.4014 66.9803C69.4014 50.3403 82.688 36.8069 99.208 36.3869C99.4747 36.3803 99.7347 36.3802 100.001 36.3802C100.268 36.3802 100.528 36.3803 100.795 36.3869C134.235 36.8136 161.201 64.0469 161.201 97.5803Z" fill="#BC5FFF"/>
<path d="M103.215 158.607L103.168 158.694C102.388 158.734 101.595 158.76 100.801 158.774C101.608 158.754 102.421 158.707 103.215 158.607Z" fill="#BC5FFF"/>
<path d="M99.428 43.7937C99.1614 43.787 98.9014 43.787 98.6347 43.787C98.368 43.787 98.108 43.787 97.8414 43.7937C84.5214 44.1337 73.308 53.0003 69.4614 65.1403C69.428 65.747 69.4014 66.3603 69.4014 66.9803C69.4014 83.8803 83.108 97.5803 100.001 97.5803C116.901 97.5803 130.601 111.28 130.601 128.18C130.601 131.407 130.095 134.514 129.175 137.434C128.795 143.807 126.461 149.654 122.768 154.387C138.321 148.147 150.721 135.72 156.908 120.14C158.815 115.347 159.828 110.22 159.835 105.06C159.835 105.034 159.835 105.007 159.835 104.98C159.835 71.447 132.868 44.2203 99.428 43.7937Z" fill="#9552FF"/>
<path d="M101.295 92.6203C104.369 92.6203 106.861 90.128 106.861 87.0536C106.861 83.9792 104.369 81.4869 101.295 81.4869C98.2203 81.4869 95.728 83.9792 95.728 87.0536C95.728 90.128 98.2203 92.6203 101.295 92.6203Z" fill="#BC5FFF"/>
<path d="M96.1481 97.3336C97.6014 94.4936 98.4281 91.2669 98.4281 87.827C98.4281 76.6203 89.6881 67.5403 78.9081 67.5403C75.5148 67.5403 72.3281 68.4403 69.5481 70.027C70.9548 84.2203 82.0681 95.5603 96.1481 97.3336Z" fill="#BC5FFF"/>
<path d="M90.808 87.2402C92.5091 87.2402 93.888 85.8612 93.888 84.1602C93.888 82.4592 92.5091 81.0802 90.808 81.0802C89.107 81.0802 87.728 82.4592 87.728 84.1602C87.728 85.8612 89.107 87.2402 90.808 87.2402Z" fill="#EB8CFF"/>
<path d="M100.001 97.5803C107.621 97.5803 114.588 100.374 119.941 104.98C125.715 99.4136 129.321 91.6069 129.321 82.9536C129.321 81.0336 129.135 79.1603 128.801 77.3469C124.548 89.1469 113.255 97.5803 100.001 97.5803Z" fill="#6E36DB"/>
<path d="M130.601 128.187C130.601 144.827 117.321 158.36 100.795 158.78C116.401 158.587 130.595 152.547 141.295 142.76C158.788 126.76 147.375 97.5869 123.668 97.5869H100.001C116.901 97.5802 130.601 111.28 130.601 128.187Z" fill="#6E36DB"/>
<path d="M128.435 139.5C124.028 150.567 113.355 158.454 100.795 158.774C112.968 158.62 124.281 154.9 133.748 148.627C134.881 147.874 135.075 146.28 134.141 145.287C132.281 143.314 130.428 141.327 128.435 139.5Z" fill="#4C29AB"/>
<path d="M130.601 128.187C130.601 144.827 117.321 158.36 100.795 158.78C105.148 158.727 109.395 158.214 113.481 157.3C148.561 149.42 142.561 97.5936 106.608 97.5936H100.001C116.901 97.5803 130.601 111.28 130.601 128.187Z" fill="#4C29AB"/>
<path d="M120.415 74.7602L131.501 75.0335C135.875 75.1402 140.048 76.9202 143.148 80.0068L148.181 85.0068C151.488 88.2935 150.435 93.8802 146.161 95.7335C138.195 99.1868 128.895 96.8135 123.555 89.9602L116.995 81.5335C114.821 78.7402 116.875 74.6735 120.415 74.7602Z" fill="#6E36DB"/>
<path d="M118.695 74.1335L129.581 72.0002C133.875 71.1602 138.335 71.9935 142.035 74.3269L148.035 78.1135C151.975 80.6002 152.161 86.2869 148.388 89.0202C141.355 94.1202 131.761 93.8202 125.068 88.2869L116.835 81.4802C114.101 79.2269 115.221 74.8135 118.695 74.1335Z" fill="#F69FFF"/>
<path d="M144.428 91.2269C148.281 89.6403 149.001 84.3469 145.508 82.0803C145.481 82.0669 145.461 82.0469 145.435 82.0336L139.435 78.2469C135.735 75.9069 131.281 75.0736 126.981 75.9203L116.095 78.0536C115.815 78.1069 115.555 78.1936 115.308 78.2936C115.315 79.4536 115.788 80.6269 116.828 81.4869L125.061 88.2936C130.568 92.8403 138.035 93.8536 144.428 91.2269Z" fill="#DD77FF"/>
<path d="M116.741 74.7335L124.861 75.2935C127.655 75.4868 130.381 76.2201 132.895 77.4535L138.581 80.2468C138.855 80.3802 138.728 80.7935 138.421 80.7535L125.435 78.7801C125.121 78.7335 124.928 79.1068 125.141 79.3402L131.315 85.8402C131.501 86.0402 131.281 86.3535 131.028 86.2402L122.508 82.3535C119.755 81.1002 116.795 80.3802 113.775 80.2402L111.048 80.1135L113.101 71.6935L116.741 74.7335Z" fill="#9552FF"/>
<path d="M138.935 53.9269C138.528 53.6936 138.021 54.0803 138.148 54.5336C138.768 56.8136 138.415 59.3336 136.961 61.4269C135.508 63.5136 133.268 64.7269 130.921 64.9469C130.448 64.9936 130.275 65.6003 130.635 65.9003C131.241 66.4136 131.961 66.8336 132.801 67.1269C136.001 68.2469 139.675 67.0469 141.488 64.1869C143.575 60.8936 142.708 56.5203 139.481 54.2736C139.301 54.1469 139.121 54.0336 138.935 53.9269Z" fill="#BC5FFF"/>
<path d="M159.835 91.9403C159.681 91.6336 159.215 91.6603 159.108 91.987C158.555 93.6336 157.308 95.0336 155.561 95.7203C153.815 96.407 151.955 96.227 150.428 95.4003C150.121 95.2336 149.768 95.5336 149.861 95.867C150.028 96.427 150.288 96.9803 150.681 97.507C152.181 99.5003 154.921 100.274 157.201 99.2603C159.821 98.1003 161.088 95.067 160.028 92.3736C159.968 92.2203 159.901 92.0736 159.835 91.9403Z" fill="#BC5FFF"/>
<path d="M151.868 66.9936C151.728 66.7203 151.315 66.7403 151.215 67.0336C150.721 68.5003 149.608 69.7536 148.055 70.3603C146.501 70.9736 144.835 70.8136 143.475 70.0736C143.201 69.927 142.881 70.1936 142.968 70.487C143.115 70.987 143.348 71.4803 143.701 71.947C145.041 73.727 147.481 74.4136 149.515 73.507C151.855 72.4736 152.981 69.767 152.035 67.367C151.988 67.2403 151.928 67.1136 151.868 66.9936Z" fill="#BC5FFF"/>
<path d="M157.595 105.9C157.528 105.654 157.188 105.614 157.061 105.834C156.435 106.947 155.341 107.787 153.981 108.047C152.628 108.3 151.301 107.92 150.308 107.107C150.108 106.947 149.808 107.114 149.835 107.367C149.875 107.794 149.988 108.234 150.201 108.667C151.015 110.32 152.881 111.247 154.675 110.834C156.728 110.354 158.061 108.334 157.668 106.24C157.655 106.12 157.628 106.007 157.595 105.9Z" fill="#BC5FFF"/>
<path d="M145.315 116.194C145.255 115.894 144.848 115.807 144.675 116.06C143.815 117.347 142.415 118.26 140.755 118.447C139.095 118.627 137.528 118.04 136.408 116.974C136.181 116.76 135.808 116.934 135.815 117.24C135.821 117.76 135.921 118.3 136.141 118.84C136.968 120.907 139.141 122.207 141.341 121.874C143.868 121.487 145.661 119.174 145.381 116.607C145.361 116.474 145.341 116.334 145.315 116.194Z" fill="#9552FF"/>
<path d="M144.215 98.6336C143.975 98.3136 143.448 98.4336 143.388 98.8336C143.081 100.827 141.928 102.674 140.068 103.8C138.208 104.927 136.041 105.094 134.128 104.447C133.748 104.32 133.395 104.727 133.575 105.094C133.875 105.707 134.281 106.287 134.835 106.807C136.948 108.794 140.228 109.134 142.641 107.527C145.415 105.68 146.261 101.96 144.515 99.0869C144.428 98.9269 144.321 98.7736 144.215 98.6336Z" fill="#9552FF"/>
<path d="M133.468 59.4335C132.121 60.8269 133.061 63.2602 135.001 63.2335C136.368 63.2135 137.721 62.6735 138.741 61.6135C139.761 60.5535 140.255 59.1802 140.228 57.8202C140.188 55.8802 137.721 55.0269 136.375 56.4202L133.468 59.4335Z" fill="#EB8CFF"/>
<path d="M127.035 56.9336C129.52 56.9336 131.535 54.9189 131.535 52.4336C131.535 49.9483 129.52 47.9336 127.035 47.9336C124.549 47.9336 122.535 49.9483 122.535 52.4336C122.535 54.9189 124.549 56.9336 127.035 56.9336Z" fill="#DE82FF"/>
<path d="M148.048 70.3603C149.204 70.3603 150.141 69.423 150.141 68.2669C150.141 67.1108 149.204 66.1736 148.048 66.1736C146.892 66.1736 145.955 67.1108 145.955 68.2669C145.955 69.423 146.892 70.3603 148.048 70.3603Z" fill="#EB8CFF"/>
<path d="M156.835 88.7669C157.781 88.7669 158.548 87.9998 158.548 87.0535C158.548 86.1073 157.781 85.3402 156.835 85.3402C155.888 85.3402 155.121 86.1073 155.121 87.0535C155.121 87.9998 155.888 88.7669 156.835 88.7669Z" fill="#DD77FF"/>
<path d="M130.601 56.127C131.809 56.127 132.788 55.148 132.788 53.9403C132.788 52.7327 131.809 51.7537 130.601 51.7537C129.394 51.7537 128.415 52.7327 128.415 53.9403C128.415 55.148 129.394 56.127 130.601 56.127Z" fill="#F8C5FF"/>
<path d="M117.495 49.0469C118.702 49.0469 119.681 48.0679 119.681 46.8603C119.681 45.6526 118.702 44.6736 117.495 44.6736C116.287 44.6736 115.308 45.6526 115.308 46.8603C115.308 48.0679 116.287 49.0469 117.495 49.0469Z" fill="#F69FFF"/>
<path d="M141.801 132.82C143.083 132.82 144.121 131.781 144.121 130.5C144.121 129.219 143.083 128.18 141.801 128.18C140.52 128.18 139.481 129.219 139.481 130.5C139.481 131.781 140.52 132.82 141.801 132.82Z" fill="#9552FF"/>
<path d="M101.295 69.8735C108.441 69.8735 114.235 64.0801 114.235 56.9335C114.235 49.787 108.441 43.9935 101.295 43.9935C94.1483 43.9935 88.3549 49.787 88.3549 56.9335C88.3549 64.0801 94.1483 69.8735 101.295 69.8735Z" fill="#6E36DB"/>
<path d="M112.42 67.3624C113.486 60.7319 108.262 54.3782 100.752 53.171C93.2416 51.9638 86.2894 56.3603 85.2236 62.9908C84.1578 69.6213 89.382 75.975 96.8922 77.1822C104.402 78.3894 111.355 73.9929 112.42 67.3624Z" fill="#DD77FF"/>
<path d="M100.002 72.3469C106.434 72.3469 111.648 67.1325 111.648 60.7003C111.648 54.268 106.434 49.0536 100.002 49.0536C93.5693 49.0536 88.3549 54.268 88.3549 60.7003C88.3549 67.1325 93.5693 72.3469 100.002 72.3469Z" fill="#C6C4E6"/>
<path d="M97.8349 53.8602C96.5282 53.8669 95.2815 54.0869 94.1149 54.4869C89.6349 56.0269 87.3882 61.1736 89.4815 65.4269C89.5682 65.6002 89.6615 65.7802 89.7615 65.9602C91.8615 69.7536 95.7415 72.3802 100.075 72.3536C101.375 72.3469 102.622 72.1269 103.788 71.7269C108.262 70.1869 110.495 65.0536 108.415 60.8069C108.328 60.6336 108.242 60.4602 108.148 60.2869C106.055 56.4736 102.168 53.8402 97.8349 53.8602Z" fill="white"/>
<path d="M100.001 68.2669C104.18 68.2669 107.568 64.8792 107.568 60.7002C107.568 56.5213 104.18 53.1335 100.001 53.1335C95.8225 53.1335 92.4348 56.5213 92.4348 60.7002C92.4348 64.8792 95.8225 68.2669 100.001 68.2669Z" fill="#3B3B5D"/>
<path d="M104.568 59.1268C106.225 59.1268 107.568 57.7837 107.568 56.1268C107.568 54.47 106.225 53.1268 104.568 53.1268C102.911 53.1268 101.568 54.47 101.568 56.1268C101.568 57.7837 102.911 59.1268 104.568 59.1268Z" fill="white"/>
<path d="M76.9814 33.7134L77.2681 37.2134L102.281 35.1801L101.808 29.3334C106.061 28.5734 103.235 28.2067 107.435 27.0534C106.915 16.9334 98.1615 9.32008 88.1415 10.1334L83.7414 10.4934C83.4748 10.5134 83.2681 10.7467 83.2881 11.0134C83.3348 11.6067 83.6614 12.1467 84.1814 12.4201C84.2348 12.4467 84.2814 12.4734 84.3348 12.5001C90.4014 15.8534 89.2948 24.3801 83.6281 26.8867C81.4148 27.8667 79.6214 29.6067 78.3148 31.6401L76.9814 33.7134Z" fill="#5B77FA"/>
<path d="M72.7014 42.7935C72.3081 34.3202 78.5948 26.7002 87.1148 26.1735C94.0348 25.7402 99.2214 19.7135 98.6614 12.8268C98.3081 8.48683 95.7414 4.84016 92.1681 2.92016C91.6481 2.64683 91.3148 2.10683 91.2681 1.52016C91.2481 1.24683 91.4414 1.0135 91.7148 0.993496L103.175 0.0601623C113.215 -0.759838 122.001 6.90016 122.481 17.0668C122.935 26.7468 115.321 34.9402 105.655 35.7268L91.9214 36.8468L91.8881 36.9268C85.0481 37.8268 78.5881 39.8602 72.7014 42.7935Z" fill="#8BB5FF"/>
<path d="M108.388 12.5269C108.621 17.5469 105.728 21.9802 101.455 24.1402C101.275 24.2335 101.168 24.4202 101.181 24.6202C101.201 24.8935 101.448 25.1002 101.721 25.0669C108.188 24.2869 113.208 18.7202 112.901 12.1602C112.568 5.10686 106.475 -0.213138 99.5015 0.360195L94.9882 0.726862C101.961 0.160195 108.061 5.47353 108.388 12.5269Z" fill="#B7D7FF"/>
<path d="M115.968 17.5935C116.421 27.2802 108.808 35.4735 99.1414 36.2602L105.648 35.7335C115.315 34.9468 122.928 26.7535 122.475 17.0668C122.001 6.90016 113.221 -0.759838 103.175 0.0601623L96.6681 0.586829C106.715 -0.226504 115.495 7.42683 115.968 17.5935Z" fill="#B7D7FF"/>
<path d="M8.44141 91.6269L12.6814 91.3469C15.0481 91.1936 17.1747 89.8536 18.3347 87.7869C19.2347 86.1936 19.4747 84.3069 19.0081 82.5336L17.3614 76.3136C17.1881 75.6602 17.8414 75.0936 18.4614 75.3469L20.2414 76.0802C30.3214 80.2336 37.6147 89.2069 39.6214 99.9202L42.4347 114.947L8.44141 91.6269Z" fill="#3C43C1"/>
<path d="M51.9347 130.127L39.5613 128.26C29.5747 126.753 20.8347 120.747 15.8413 111.967L13.328 107.547C10.848 103.18 7.48802 99.3735 3.46135 96.3668L0.448018 94.1201C-0.378649 93.5001 0.00801778 92.1868 1.04135 92.1135L17.8413 91.0001C29.4547 90.2335 40.1747 97.2601 44.0947 108.22L51.9347 130.127Z" fill="#6181FF"/>
<path d="M1.0413 92.1202L17.848 91.0002C29.4613 90.2269 40.1813 97.2602 44.0946 108.22L49.7546 124.027L48.6746 124L47.1013 119.594C43.1813 108.634 32.4613 101.6 20.8546 102.374C15.6413 102.72 10.5146 101.16 6.2413 98.1469C5.34797 97.5135 4.4213 96.9202 3.46797 96.3669L0.454635 94.1202C-0.378699 93.5069 0.00796795 92.1935 1.0413 92.1202Z" fill="#4958EB"/>
<path d="M3.46802 96.3669C7.81468 98.8869 11.5947 102.267 14.5747 106.307L17.5947 110.407C23.568 118.534 32.9547 123.48 43.0613 123.807L49.7614 124.027L51.9414 130.127L39.5747 128.247C29.5814 126.747 20.8414 120.74 15.848 111.967L13.328 107.54C10.848 103.18 7.48802 99.3803 3.46802 96.3669Z" fill="#8BB5FF"/>
<path d="M43.8347 118.214L40.0213 117.84C35.728 117.42 31.6013 115.947 28.0147 113.547L24.0613 110.9C23.4547 110.494 23.8413 109.554 24.5547 109.687L41.4013 112.807L43.8347 118.214Z" fill="#4958EB"/>
<path d="M38.8014 97.5802C38.8014 64.0402 65.7681 36.8068 99.2081 36.3868C82.6814 36.8068 69.4014 50.3402 69.4014 66.9802C69.4014 83.8802 83.1014 97.5802 100.001 97.5802C116.895 97.5802 130.601 111.28 130.601 128.18C130.601 144.82 117.315 158.354 100.795 158.774C100.528 158.78 100.268 158.78 100.001 158.78C99.7347 158.78 99.4747 158.78 99.2081 158.774C65.7681 158.354 38.8014 131.12 38.8014 97.5802Z" fill="#7DA5FF"/>
<path d="M96.7881 36.5602L96.8348 36.4736C97.6148 36.4336 98.4081 36.4069 99.2014 36.3936C98.3948 36.4136 97.5814 36.4602 96.7881 36.5602Z" fill="#8BB5FF"/>
<path d="M100.575 151.367C100.841 151.373 101.101 151.373 101.368 151.373C101.635 151.373 101.895 151.373 102.161 151.367C115.481 151.027 126.695 142.16 130.541 130.02C130.575 129.413 130.601 128.8 130.601 128.18C130.601 111.28 116.895 97.5801 100.001 97.5801C83.1013 97.5801 69.4013 83.8801 69.4013 66.9801C69.4013 63.7534 69.908 60.6468 70.828 57.7268C71.208 51.3534 73.5413 45.5068 77.2346 40.7734C61.6813 47.0134 49.2813 59.4401 43.0946 75.0201C41.188 79.8134 40.1746 84.9401 40.168 90.1001C40.168 90.1268 40.168 90.1534 40.168 90.1801C40.168 123.713 67.1346 150.947 100.575 151.367Z" fill="#6181FF"/>
<path d="M98.228 113.053C101.302 113.053 103.795 110.561 103.795 107.487C103.795 104.412 101.302 101.92 98.228 101.92C95.1537 101.92 92.6614 104.412 92.6614 107.487C92.6614 110.561 95.1537 113.053 98.228 113.053Z" fill="#7DA5FF"/>
<path d="M103.855 97.8335C102.401 100.673 101.575 103.9 101.575 107.34C101.575 118.547 110.315 127.627 121.095 127.627C124.488 127.627 127.675 126.727 130.455 125.14C129.048 110.94 117.935 99.6068 103.855 97.8335Z" fill="#7DA5FF"/>
<path d="M109.195 114.087C110.896 114.087 112.275 112.708 112.275 111.007C112.275 109.306 110.896 107.927 109.195 107.927C107.494 107.927 106.115 109.306 106.115 111.007C106.115 112.708 107.494 114.087 109.195 114.087Z" fill="#B7D7FF"/>
<path d="M100.001 97.5802C92.3814 97.5802 85.4147 94.7868 80.0614 90.1802C74.2881 95.7468 70.6814 103.554 70.6814 112.207C70.6814 114.127 70.8681 116 71.2014 117.814C75.4547 106.02 86.7481 97.5802 100.001 97.5802Z" fill="#4958EB"/>
<path d="M69.4013 66.9802C69.4013 50.3402 82.6813 36.8068 99.208 36.3868C83.6013 36.5802 69.408 42.6202 58.708 52.4068C41.2146 68.4068 52.628 97.5802 76.3346 97.5802H100.001C83.1013 97.5802 69.4013 83.8868 69.4013 66.9802Z" fill="#4958EB"/>
<path d="M69.4014 66.9802C69.4014 50.3402 82.6814 36.8068 99.2081 36.3868C94.8548 36.4402 90.6081 36.9535 86.5214 37.8668C51.4414 45.7468 57.4414 97.5735 93.3948 97.5735H100.001C83.1014 97.5802 69.4014 83.8868 69.4014 66.9802Z" fill="#383CB3"/>
<path d="M61.0681 141.24C61.4748 141.474 61.9814 141.087 61.8548 140.634C61.2348 138.354 61.5881 135.834 63.0414 133.74C64.4948 131.654 66.7348 130.44 69.0814 130.22C69.5548 130.174 69.7281 129.567 69.3681 129.267C68.7614 128.754 68.0414 128.334 67.2014 128.04C64.0014 126.92 60.3281 128.12 58.5148 130.98C56.4281 134.274 57.2948 138.647 60.5214 140.894C60.7014 141.02 60.8814 141.134 61.0681 141.24Z" fill="#7DA5FF"/>
<path d="M40.168 103.227C40.3214 103.534 40.788 103.507 40.8947 103.18C41.448 101.534 42.6947 100.134 44.4414 99.4468C46.188 98.7602 48.048 98.9402 49.5747 99.7668C49.8814 99.9335 50.2347 99.6335 50.1414 99.3002C49.9747 98.7402 49.7147 98.1868 49.3214 97.6602C47.8214 95.6668 45.0814 94.8935 42.8014 95.9068C40.1814 97.0668 38.9147 100.1 39.9747 102.794C40.0347 102.947 40.1014 103.087 40.168 103.227Z" fill="#7DA5FF"/>
<path d="M48.1347 128.174C48.2747 128.447 48.688 128.427 48.788 128.134C49.2814 126.667 50.3947 125.414 51.948 124.807C53.5014 124.194 55.168 124.354 56.528 125.094C56.8014 125.24 57.1214 124.974 57.0347 124.68C56.888 124.18 56.6547 123.687 56.3014 123.22C54.9614 121.44 52.5214 120.754 50.488 121.66C48.148 122.694 47.0214 125.4 47.968 127.8C48.0147 127.927 48.0747 128.054 48.1347 128.174Z" fill="#7DA5FF"/>
<path d="M42.408 89.2668C42.4746 89.5135 42.8146 89.5535 42.9413 89.3335C43.568 88.2201 44.6613 87.3801 46.0213 87.1201C47.3746 86.8668 48.7013 87.2468 49.6946 88.0601C49.8946 88.2201 50.1946 88.0535 50.168 87.8001C50.128 87.3735 50.0146 86.9335 49.8013 86.5001C48.988 84.8468 47.1213 83.9201 45.328 84.3335C43.2746 84.8135 41.9413 86.8335 42.3346 88.9268C42.348 89.0468 42.3746 89.1535 42.408 89.2668Z" fill="#7DA5FF"/>
<path d="M54.6881 78.9668C54.7481 79.2668 55.1548 79.3535 55.3281 79.1002C56.1881 77.8135 57.5881 76.9002 59.2481 76.7135C60.9081 76.5335 62.4748 77.1202 63.5948 78.1868C63.8214 78.4002 64.1948 78.2268 64.1881 77.9202C64.1814 77.4002 64.0814 76.8602 63.8614 76.3202C63.0348 74.2535 60.8614 72.9535 58.6614 73.2868C56.1348 73.6735 54.3414 75.9868 54.6214 78.5535C54.6414 78.6935 54.6614 78.8335 54.6881 78.9668Z" fill="#6181FF"/>
<path d="M55.788 96.5336C56.028 96.8536 56.5546 96.7336 56.6146 96.3336C56.9213 94.3402 58.0746 92.4936 59.9346 91.3669C61.7946 90.2402 63.9613 90.0736 65.8746 90.7202C66.2546 90.8469 66.608 90.4402 66.428 90.0736C66.128 89.4602 65.7213 88.8802 65.168 88.3602C63.0546 86.3736 59.7746 86.0336 57.3613 87.6402C54.588 89.4869 53.7413 93.2069 55.488 96.0802C55.5746 96.2402 55.6813 96.3936 55.788 96.5336Z" fill="#6181FF"/>
<path d="M66.5347 135.734C67.8814 134.34 66.9414 131.907 65.0014 131.934C63.6347 131.954 62.2814 132.494 61.2614 133.554C60.2414 134.614 59.748 135.987 59.7747 137.347C59.8147 139.287 62.2814 140.14 63.628 138.747L66.5347 135.734Z" fill="#B7D7FF"/>
<path d="M72.968 147.234C75.4533 147.234 77.468 145.219 77.468 142.734C77.468 140.248 75.4533 138.234 72.968 138.234C70.4827 138.234 68.468 140.248 68.468 142.734C68.468 145.219 70.4827 147.234 72.968 147.234Z" fill="#B7D7FF"/>
<path d="M51.9547 128.994C53.1108 128.994 54.048 128.056 54.048 126.9C54.048 125.744 53.1108 124.807 51.9547 124.807C50.7985 124.807 49.8613 125.744 49.8613 126.9C49.8613 128.056 50.7985 128.994 51.9547 128.994Z" fill="#B7D7FF"/>
<path d="M43.168 109.827C44.1143 109.827 44.8814 109.06 44.8814 108.113C44.8814 107.167 44.1143 106.4 43.168 106.4C42.2218 106.4 41.4547 107.167 41.4547 108.113C41.4547 109.06 42.2218 109.827 43.168 109.827Z" fill="#A8CCFF"/>
<path d="M69.4014 143.413C70.609 143.413 71.5881 142.434 71.5881 141.227C71.5881 140.019 70.609 139.04 69.4014 139.04C68.1937 139.04 67.2147 140.019 67.2147 141.227C67.2147 142.434 68.1937 143.413 69.4014 143.413Z" fill="#E6F5FF"/>
<path d="M82.508 150.494C83.7156 150.494 84.6946 149.515 84.6946 148.307C84.6946 147.099 83.7156 146.12 82.508 146.12C81.3003 146.12 80.3213 147.099 80.3213 148.307C80.3213 149.515 81.3003 150.494 82.508 150.494Z" fill="#C5E2FF"/>
<path d="M58.2013 66.9868C59.4827 66.9868 60.5213 65.9481 60.5213 64.6668C60.5213 63.3855 59.4827 62.3468 58.2013 62.3468C56.92 62.3468 55.8813 63.3855 55.8813 64.6668C55.8813 65.9481 56.92 66.9868 58.2013 66.9868Z" fill="#6181FF"/>
<path d="M98.7081 143.667C105.855 143.667 111.648 137.873 111.648 130.727C111.648 123.58 105.855 117.787 98.7081 117.787C91.5615 117.787 85.7681 123.58 85.7681 130.727C85.7681 137.873 91.5615 143.667 98.7081 143.667Z" fill="#4958EB"/>
<path d="M103.114 151.936C110.625 150.729 115.849 144.375 114.783 137.745C113.717 131.115 106.765 126.718 99.2549 127.925C91.7447 129.132 86.5205 135.486 87.5863 142.117C88.6521 148.747 95.6043 153.144 103.114 151.936Z" fill="#7DA5FF"/>
<path d="M100.001 146.134C106.434 146.134 111.648 140.919 111.648 134.487C111.648 128.055 106.434 122.84 100.001 122.84C93.5691 122.84 88.3547 128.055 88.3547 134.487C88.3547 140.919 93.5691 146.134 100.001 146.134Z" fill="#C6C4E6"/>
<path d="M102.168 127.647C103.475 127.654 104.721 127.874 105.888 128.274C110.368 129.814 112.615 134.96 110.521 139.214C110.435 139.387 110.341 139.567 110.241 139.747C108.141 143.54 104.261 146.167 99.928 146.14C98.628 146.134 97.3814 145.914 96.2147 145.514C91.7414 143.974 89.508 138.84 91.588 134.594C91.6747 134.42 91.7614 134.247 91.8547 134.074C93.948 130.26 97.8347 127.627 102.168 127.647Z" fill="white"/>
<path d="M100.001 142.053C104.18 142.053 107.568 138.666 107.568 134.487C107.568 130.308 104.18 126.92 100.001 126.92C95.8224 126.92 92.4347 130.308 92.4347 134.487C92.4347 138.666 95.8224 142.053 100.001 142.053Z" fill="#3B3B5D"/>
<path d="M95.4347 132.914C97.0915 132.914 98.4347 131.57 98.4347 129.914C98.4347 128.257 97.0915 126.914 95.4347 126.914C93.7778 126.914 92.4347 128.257 92.4347 129.914C92.4347 131.57 93.7778 132.914 95.4347 132.914Z" fill="white"/>
<path d="M70.548 59.2535L67.1146 58.1735C65.1346 57.5468 62.9746 58.2468 61.728 59.9068L60.5746 61.4402C59.168 63.3202 59.288 65.9335 60.868 67.6735C62.408 69.3668 64.9146 69.7668 66.9013 68.6402L68.9613 67.4735C69.1146 64.6735 69.6213 61.9002 70.548 59.2535Z" fill="#383CB3"/>
<path d="M78.2946 124.227L68.3679 125.86C64.0479 126.573 59.6213 125.607 55.9946 123.153L50.1146 119.187C46.2479 116.58 46.2413 110.893 50.0946 108.273C57.2746 103.387 66.8546 103.98 73.3813 109.713L80.6279 116.08C83.5946 118.693 82.2013 123.587 78.2946 124.227Z" fill="#4958EB"/>
<path d="M79.4679 123.253L68.3879 122.773C64.0146 122.587 59.8813 120.727 56.8346 117.587L51.8946 112.493C48.6479 109.147 49.8013 103.58 54.1146 101.807C62.1479 98.5002 71.4013 101.047 76.6079 107.993L83.0146 116.54C85.1279 119.38 83.0013 123.407 79.4679 123.253Z" fill="#B7D7FF"/>
<path d="M83.4947 120.727C82.848 122.227 81.3613 123.347 79.468 123.26L68.3813 122.78C64.008 122.587 59.8813 120.733 56.828 117.593L51.8813 112.5C51.4147 112.02 51.0413 111.5 50.7547 110.947C49.4947 108.54 51.268 105.64 53.9747 105.413L59.0947 104.993C62.9147 104.68 66.7147 105.813 69.7413 108.167L78.6013 115.073L83.4947 120.727Z" fill="#8BB5FF"/>
<path d="M81.5013 123.133L73.7413 120.68C71.0746 119.84 68.5946 118.487 66.4413 116.693L61.5679 112.64C61.3346 112.447 61.5546 112.073 61.8413 112.187L74.0013 117.153C74.2946 117.273 74.5746 116.953 74.4146 116.68L69.9413 108.913C69.8013 108.673 70.0946 108.427 70.3079 108.593L77.6746 114.367C80.0546 116.233 82.7679 117.627 85.6679 118.473L88.2879 119.24L84.3146 126.947L81.5013 123.133Z" fill="#6181FF"/>
<path d="M122.701 137.687L131.248 138.88C133.308 139.167 134.955 140.727 135.368 142.76L135.748 144.64C136.215 146.94 134.975 149.254 132.801 150.14C130.688 151.007 128.248 150.294 126.941 148.42L121.175 140.187C120.368 139.047 121.321 137.494 122.701 137.687Z" fill="#8BB5FF"/>
<path d="M121.028 137.28L128.501 132.92C131.108 131.4 134.395 131.687 136.695 133.64L137.501 134.327C139.528 136.047 140.048 138.967 138.735 141.28C137.461 143.534 134.795 144.6 132.321 143.86L121.428 140.587C119.901 140.12 119.661 138.08 121.028 137.28Z" fill="#8BB5FF"/>
<path d="M131.255 132.334C131.315 132.207 131.395 132.094 131.475 131.987C133.328 131.827 135.208 132.387 136.688 133.64L137.495 134.327C137.521 134.354 137.548 134.38 137.575 134.407C137.555 134.694 137.501 134.98 137.368 135.247C136.708 136.634 134.808 137.1 133.115 136.294C131.428 135.487 130.595 133.714 131.255 132.334Z" fill="#B7D7FF"/>
<path d="M136.935 139.88C138.441 139.88 139.581 138.474 139.215 137.027C139.608 138.414 139.481 139.94 138.728 141.274C137.455 143.527 134.788 144.594 132.315 143.854L121.421 140.58C120.988 140.454 120.675 140.187 120.461 139.867L136.935 139.88Z" fill="#536DFE"/>
<path d="M78.8948 58.1135L70.6681 55.5202C68.6881 54.8935 66.5281 55.5935 65.2814 57.2535L64.1281 58.7869C62.7214 60.6669 62.8414 63.2802 64.4214 65.0202C65.9614 66.7135 68.4681 67.1135 70.4548 65.9869L79.2014 61.0335C80.4214 60.3402 80.2348 58.5335 78.8948 58.1135Z" fill="#BC5FFF"/>
<path d="M80.5881 58.4669L75.7214 51.3202C74.0214 48.8269 70.9347 47.6735 68.0147 48.4469L66.9947 48.7202C64.4281 49.4002 62.7014 51.8135 62.8947 54.4669C63.0747 57.0469 65.0214 59.1602 67.5814 59.5536L78.8214 61.2802C80.3814 61.5135 81.4814 59.7735 80.5881 58.4669Z" fill="#BC5FFF"/>
<path d="M73.4814 49.6002C73.4814 49.4602 73.4547 49.3269 73.4281 49.1935C71.8281 48.2535 69.8814 47.9469 68.0081 48.4469L66.9881 48.7202C66.9481 48.7269 66.9214 48.7469 66.8814 48.7602C66.7747 49.0269 66.7014 49.3069 66.7014 49.6069C66.7014 51.1402 68.2147 52.3802 70.0881 52.3802C71.9681 52.3735 73.4814 51.1335 73.4814 49.6002Z" fill="#DD77FF"/>
<path d="M65.1081 53.9735C63.7481 53.3268 63.3214 51.5602 64.2748 50.4202C63.3214 51.5002 62.7814 52.9402 62.8881 54.4602C63.0681 57.0402 65.0148 59.1535 67.5747 59.5468L78.8147 61.2735C79.2614 61.3402 79.6547 61.2402 79.9881 61.0402L65.1081 53.9735Z" fill="#6E36DB"/>
</g>
<defs>
<clipPath id="clip0_511_292">
<rect width="200" height="200" fill="white"/>
</clipPath>
</defs>
</svg>
